<?xml version="1.0" encoding="UTF-8" standalone="no"?>
<svg
   version="1.1"
   viewBox="0 0 512 335.55301"
   id="svg34"
   sodipodi:docname="brazil.svg"
   width="512"
   height="335.55301"
   inkscape:version="1.3.2 (091e20ef0f, 2023-11-25, custom)"
   xmlns:inkscape="http://www.inkscape.org/namespaces/inkscape"
   xmlns:sodipodi="http://sodipodi.sourceforge.net/DTD/sodipodi-0.dtd"
   xmlns="http://www.w3.org/2000/svg"
   xmlns:svg="http://www.w3.org/2000/svg">
  <defs
     id="defs34" />
  <sodipodi:namedview
     id="namedview34"
     pagecolor="#505050"
     bordercolor="#eeeeee"
     borderopacity="1"
     inkscape:showpageshadow="0"
     inkscape:pageopacity="0"
     inkscape:pagecheckerboard="0"
     inkscape:deskcolor="#505050"
     inkscape:zoom="0.52618688"
     inkscape:cx="77.919084"
     inkscape:cy="251.81167"
     inkscape:window-width="1920"
     inkscape:window-height="997"
     inkscape:window-x="0"
     inkscape:window-y="36"
     inkscape:window-maximized="1"
     inkscape:current-layer="svg34" />
  <g
     stroke-width="2"
     fill="none"
     stroke-linecap="butt"
     id="g18"
     transform="translate(0,-88.247333)">
    <path
       stroke="#b9c82d"
       vector-effect="non-scaling-stroke"
       d="m 260.66,135.23 a 8.88,8.88 0 0 0 -9.24,0 L 65.45,248.41 a 8.88,8.88 0 0 0 0,15.18 l 185.98,113.19 a 8.88,8.88 0 0 0 9.24,0 L 446.6,263.59 a 8.88,8.88 0 0 0 0,-15.17 L 260.66,135.23"
       id="path1" />
    <path
       stroke="#faeba8"
       vector-effect="non-scaling-stroke"
       d="m 195.26,219.99 a 70.99,70.77 -21 0 0 -6.59,14.73"
       id="path2" />
    <path
       stroke="#a0947b"
       vector-effect="non-scaling-stroke"
       d="m 188.67,234.72 a 70.64,70.63 -50.9 0 0 5.76,55.84 70.58,70.58 0 0 0 35.08,30.89 70.6,70.6 0 0 0 45.73,2.48 70.63,70.61 2.7 0 0 46.55,-42.28"
       id="path3" />
    <path
       stroke="#faeba8"
       vector-effect="non-scaling-stroke"
       d="m 321.79,281.65 a 70.82,70.41 -32 0 0 4.54,-19.37"
       id="path4" />
    <path
       stroke="#a0947b"
       vector-effect="non-scaling-stroke"
       d="m 326.33,262.28 a 70.64,70.63 30.1 0 0 -12.42,-46.7 70.65,70.58 -8.5 0 0 -36.17,-26.77 70.63,70.6 -48.9 0 0 -52.51,3.63 70.69,70.66 2.4 0 0 -29.97,27.55"
       id="path5" />
    <path
       stroke="#9b9ec8"
       vector-effect="non-scaling-stroke"
       d="m 326.33,262.28 c -34.25,-28.39 -79.41,-41.9 -123.59,-42.43 q -5.13,-0.06 -7.48,0.14"
       id="path6" />
    <path
       stroke="#9b9ec8"
       vector-effect="non-scaling-stroke"
       d="M 321.79,281.65 Q 305.99,266.98 290.2,259.02 242.23,234.83 188.38,237.89 a 0.43,0.43 0 0 1 -0.44,-0.54 l 0.73,-2.63"
       id="path7" />
    <path
       stroke="#9b9ec8"
       vector-effect="non-scaling-stroke"
       d="m 284.88,226.29 a 0.34,0.34 0 0 1 -0.31,-0.23 l -0.77,-2.21 a 0.34,0.34 0 0 0 -0.64,0 l -0.78,2.21 a 0.34,0.34 0 0 1 -0.31,0.22 l -2.34,0.05 a 0.34,0.34 0 0 0 -0.2,0.61 l 1.86,1.42 a 0.34,0.34 0 0 1 0.12,0.37 l -0.68,2.24 a 0.34,0.34 0 0 0 0.52,0.37 l 1.92,-1.33 a 0.34,0.34 0 0 1 0.39,0 l 1.92,1.34 a 0.34,0.34 0 0 0 0.52,-0.38 l -0.67,-2.24 a 0.34,0.34 0 0 1 0.12,-0.36 l 1.86,-1.42 a 0.34,0.34 0 0 0 -0.19,-0.61 l -2.34,-0.05"
       id="path8" />
    <path
       stroke="#9b9ec8"
       vector-effect="non-scaling-stroke"
       d="m 207.85,254.62 a 0.3,0.3 0 0 1 -0.29,-0.2 L 207,252.7 a 0.3,0.3 0 0 0 -0.57,0.01 l -0.56,1.71 a 0.3,0.3 0 0 1 -0.28,0.21 h -1.8 a 0.3,0.3 0 0 0 -0.18,0.55 l 1.46,1.05 a 0.3,0.3 0 0 1 0.11,0.34 l -0.55,1.71 a 0.3,0.3 0 0 0 0.46,0.34 l 1.46,-1.06 a 0.3,0.3 0 0 1 0.35,0 l 1.46,1.05 a 0.3,0.3 0 0 0 0.46,-0.33 l -0.56,-1.72 a 0.3,0.3 0 0 1 0.11,-0.33 l 1.46,-1.07 a 0.3,0.3 0 0 0 -0.18,-0.54 h -1.8"
       id="path9" />
    <path
       stroke="#9b9ec8"
       vector-effect="non-scaling-stroke"
       d="m 221.3,265.93 q 0.02,-0.34 -0.13,-0.64 -0.45,-0.95 -0.78,0.05 l -0.28,0.84 q -0.19,0.58 -0.79,0.58 h -1.08 q -1.02,0 -0.2,0.61 1.34,1.02 0.85,2.64 -0.38,1.27 0.57,0.35 1.02,-0.99 2.13,-0.25 1.19,0.78 0.82,-0.59 -0.32,-1.16 0.58,-1.94 0.76,-0.67 -0.24,-0.81 l -0.85,-0.12 q -0.63,-0.08 -0.6,-0.72"
       id="path10" />
    <path
       stroke="#9b9ec8"
       vector-effect="non-scaling-stroke"
       d="m 205.18,268.87 a 0.34,0.34 0 0 1 -0.31,-0.22 l -0.73,-2.11 a 0.34,0.34 0 0 0 -0.64,0 l -0.75,2.09 a 0.34,0.34 0 0 1 -0.32,0.23 l -2.22,0.04 a 0.34,0.34 0 0 0 -0.21,0.61 l 1.77,1.37 a 0.34,0.34 0 0 1 0.11,0.36 l -0.64,2.14 a 0.34,0.34 0 0 0 0.51,0.38 l 1.85,-1.26 a 0.34,0.34 0 0 1 0.38,0 l 1.83,1.28 a 0.34,0.34 0 0 0 0.52,-0.38 l -0.62,-2.14 a 0.34,0.34 0 0 1 0.12,-0.36 l 1.77,-1.35 a 0.34,0.34 0 0 0 -0.19,-0.61 l -2.23,-0.07"
       id="path11" />
    <path
       stroke="#9b9ec8"
       vector-effect="non-scaling-stroke"
       d="m 249.56,271.25 -0.52,-1.51 q -0.31,-0.93 -0.77,-0.06 -0.41,0.77 -0.62,1.6 -0.15,0.54 -0.71,0.48 -0.96,-0.11 -1.85,0.14 -0.97,0.27 -0.12,0.81 l 1.22,0.77 a 0.86,0.85 -66.8 0 1 0.37,0.94 l -0.39,1.57 q -0.39,1.56 0.8,0.48 0.74,-0.68 1.56,-0.93 0.48,-0.15 0.82,0.22 0.57,0.62 1.33,0.93 0.68,0.28 0.47,-0.42 l -0.56,-1.82 q -0.16,-0.53 0.3,-0.83 l 1.21,-0.8 q 1.06,-0.69 -0.17,-1 -0.68,-0.17 -1.35,-0.01 a 0.86,0.86 0 0 1 -1.02,-0.56"
       id="path12" />
    <path
       stroke="#9b9ec8"
       vector-effect="non-scaling-stroke"
       d="m 261.33,285.76 a 0.73,0.73 0 0 1 -0.68,-0.49 l -1.79,-5.18 a 0.73,0.73 0 0 0 -1.38,0 l -1.79,5.18 a 0.73,0.73 0 0 1 -0.68,0.49 l -5.47,0.1 a 0.73,0.73 0 0 0 -0.43,1.31 l 4.37,3.3 a 0.73,0.73 0 0 1 0.26,0.8 l -1.6,5.24 a 0.73,0.73 0 0 0 1.12,0.81 l 4.49,-3.14 a 0.73,0.73 0 0 1 0.84,0 l 4.49,3.14 a 0.73,0.73 0 0 0 1.12,-0.81 l -1.6,-5.24 a 0.73,0.73 0 0 1 0.26,-0.8 l 4.37,-3.3 a 0.73,0.73 0 0 0 -0.43,-1.31 l -5.47,-0.1"
       id="path13" />
    <path
       stroke="#9b9ec8"
       vector-effect="non-scaling-stroke"
       d="m 218.38,283.54 a 0.34,0.34 0 0 1 -0.3,-0.22 l -1.05,-2.82 a 0.34,0.34 0 0 0 -0.64,0 l -1.05,2.82 a 0.34,0.34 0 0 1 -0.3,0.22 l -3,0.13 a 0.34,0.34 0 0 0 -0.2,0.6 l 2.35,1.87 a 0.34,0.34 0 0 1 0.12,0.36 l -0.81,2.89 a 0.34,0.34 0 0 0 0.52,0.37 l 2.5,-1.66 a 0.34,0.34 0 0 1 0.38,0 l 2.5,1.66 a 0.34,0.34 0 0 0 0.52,-0.37 l -0.81,-2.89 a 0.34,0.34 0 0 1 0.12,-0.36 l 2.35,-1.87 a 0.34,0.34 0 0 0 -0.2,-0.6 l -3,-0.13"
       id="path14" />
    <path
       stroke="#9b9ec8"
       vector-effect="non-scaling-stroke"
       d="m 302.89,283.35 a 0.33,0.33 0 0 1 -0.3,-0.22 l -0.74,-2.15 a 0.33,0.33 0 0 0 -0.62,0 l -0.74,2.15 a 0.33,0.33 0 0 1 -0.3,0.22 l -2.27,0.04 a 0.33,0.33 0 0 0 -0.19,0.59 l 1.81,1.36 a 0.33,0.33 0 0 1 0.12,0.36 l -0.67,2.17 a 0.33,0.33 0 0 0 0.5,0.37 l 1.86,-1.31 a 0.33,0.33 0 0 1 0.38,0 l 1.86,1.31 a 0.33,0.33 0 0 0 0.5,-0.37 l -0.67,-2.17 a 0.33,0.33 0 0 1 0.12,-0.36 l 1.81,-1.36 a 0.33,0.33 0 0 0 -0.19,-0.59 l -2.27,-0.04"
       id="path15" />
    <path
       stroke="#9b9ec8"
       vector-effect="non-scaling-stroke"
       d="m 242.65,296.27 a 0.34,0.34 0 0 1 -0.31,-0.23 l -0.76,-2.11 a 0.34,0.34 0 0 0 -0.64,0 l -0.74,2.11 a 0.34,0.34 0 0 1 -0.31,0.23 l -2.24,0.06 a 0.34,0.34 0 0 0 -0.2,0.61 l 1.78,1.36 a 0.34,0.34 0 0 1 0.12,0.37 l -0.63,2.15 a 0.34,0.34 0 0 0 0.52,0.37 l 1.84,-1.27 a 0.34,0.34 0 0 1 0.39,0 l 1.84,1.27 a 0.34,0.34 0 0 0 0.52,-0.38 l -0.64,-2.15 a 0.34,0.34 0 0 1 0.12,-0.36 l 1.77,-1.37 a 0.34,0.34 0 0 0 -0.2,-0.61 l -2.23,-0.05"
       id="path16" />
    <path
       stroke="#9b9ec8"
       vector-effect="non-scaling-stroke"
       d="m 283.03,297.13 a 0.33,0.33 0 0 1 -0.31,-0.22 L 282,294.78 a 0.33,0.33 0 0 0 -0.63,0 l -0.73,2.12 a 0.33,0.33 0 0 1 -0.31,0.22 l -2.24,0.04 a 0.33,0.33 0 0 0 -0.2,0.59 l 1.8,1.35 a 0.33,0.33 0 0 1 0.11,0.37 l -0.66,2.14 a 0.33,0.33 0 0 0 0.51,0.37 l 1.84,-1.29 a 0.33,0.33 0 0 1 0.38,0 l 1.83,1.3 a 0.33,0.33 0 0 0 0.51,-0.37 l -0.66,-2.15 a 0.33,0.33 0 0 1 0.12,-0.36 l 1.8,-1.35 a 0.33,0.33 0 0 0 -0.19,-0.59 l -2.25,-0.04"
       id="path17" />
    <path
       stroke="#9b9ec8"
       vector-effect="non-scaling-stroke"
       d="m 295.31,296.58 q -0.14,-0.52 -0.41,-0.98 -0.49,-0.83 -0.72,0.11 l -0.25,1.07 a 0.65,0.65 0 0 1 -0.79,0.47 q -0.63,-0.15 -1.18,0.07 -0.78,0.33 0,0.67 1.72,0.76 0.78,2.36 -0.47,0.79 0.42,0.57 0.41,-0.1 0.64,-0.44 a 0.97,0.97 0 0 1 1.52,-0.07 q 0.36,0.4 0.86,0.51 0.64,0.14 0.41,-0.48 l -0.36,-0.99 q -0.21,-0.56 0.27,-0.92 l 0.99,-0.76 q 0.86,-0.67 -0.22,-0.61 l -1.07,0.06 q -0.7,0.04 -0.89,-0.64"
       id="path18" />
  </g>
  <path
     fill="#73af00"
     d="M 512,36.122667 V 299.51267 q -2.56,22.64 -21.96,32.21 c -5.43,2.67 -11.56,3.8 -17.55,3.8 q -220.35,-0.11 -426.71,0.03 -11.42,0.01 -16.38,-1.15 c -16.42,-3.84 -27.83,-17.98 -29.4,-34.78 V 35.762667 q 1.98,-19.28 17.49,-29.5600003 9.29,-6.16000003 20.99,-6.16000003 229.67,-0.08 434.63,-0.01 c 6.19,0 12.24,1.28000003 17.75,4.15000003 Q 509.61,13.932667 512,36.122667 Z m -251.34,10.86 a 8.88,8.88 0 0 0 -9.24,0 L 65.45,160.16267 a 8.88,8.88 0 0 0 0,15.18 l 185.98,113.19 a 8.88,8.88 0 0 0 9.24,0 l 185.93,-113.19 a 8.88,8.88 0 0 0 0,-15.17 z"
     id="path19" />
  <path
     fill="#ffe15a"
     d="M 260.66,46.982667 446.6,160.17267 a 8.88,8.88 0 0 1 0,15.17 l -185.93,113.19 a 8.88,8.88 0 0 1 -9.24,0 l -185.98,-113.19 a 8.88,8.88 0 0 1 0,-15.18 L 251.42,46.982667 a 8.88,8.88 0 0 1 9.24,0 z m -65.4,84.760003 a 70.77,70.99 69 0 0 -6.59,14.73 70.63,70.64 39.1 0 0 5.76,55.84 70.58,70.58 0 0 0 35.08,30.89 70.6,70.6 0 0 0 45.73,2.48 70.63,70.61 2.7 0 0 46.55,-42.28 70.41,70.82 58 0 0 4.54,-19.37 70.64,70.63 30.1 0 0 -12.42,-46.7 70.58,70.65 81.5 0 0 -36.17,-26.77 70.6,70.63 41.1 0 0 -52.51,3.63 70.69,70.66 2.4 0 0 -29.97,27.55 z"
     id="path20" />
  <path
     fill="#41479b"
     d="m 326.33,174.03267 c -34.25,-28.39 -79.41,-41.9 -123.59,-42.43 q -5.13,-0.06 -7.48,0.14 a 70.69,70.66 2.4 0 1 29.97,-27.55 70.6,70.63 41.1 0 1 52.51,-3.63 70.58,70.65 81.5 0 1 36.17,26.77 70.64,70.63 30.1 0 1 12.42,46.7 z m -41.45,-35.99 a 0.34,0.34 0 0 1 -0.31,-0.23 l -0.77,-2.21 a 0.34,0.34 0 0 0 -0.64,0 l -0.78,2.21 a 0.34,0.34 0 0 1 -0.31,0.22 l -2.34,0.05 a 0.34,0.34 0 0 0 -0.2,0.61 l 1.86,1.42 a 0.34,0.34 0 0 1 0.12,0.37 l -0.68,2.24 a 0.34,0.34 0 0 0 0.52,0.37 l 1.92,-1.33 a 0.34,0.34 0 0 1 0.39,0 l 1.92,1.34 a 0.34,0.34 0 0 0 0.52,-0.38 l -0.67,-2.24 a 0.34,0.34 0 0 1 0.12,-0.36 l 1.86,-1.42 a 0.34,0.34 0 0 0 -0.19,-0.61 z"
     id="path21" />
  <path
     fill="#f5f5f5"
     d="m 326.33,174.03267 a 70.41,70.82 58 0 1 -4.54,19.37 q -15.8,-14.67 -31.59,-22.63 -47.97,-24.19 -101.82,-21.13 a 0.43,0.43 0 0 1 -0.44,-0.54 l 0.73,-2.63 a 70.77,70.99 69 0 1 6.59,-14.73 q 2.35,-0.2 7.48,-0.14 c 44.18,0.53 89.34,14.04 123.59,42.43 z"
     id="path22" />
  <path
     fill="#f5f5f5"
     d="m 284.88,138.04267 2.34,0.05 a 0.34,0.34 0 0 1 0.19,0.61 l -1.86,1.42 a 0.34,0.34 0 0 0 -0.12,0.36 l 0.67,2.24 a 0.34,0.34 0 0 1 -0.52,0.38 l -1.92,-1.34 a 0.34,0.34 0 0 0 -0.39,0 l -1.92,1.33 a 0.34,0.34 0 0 1 -0.52,-0.37 l 0.68,-2.24 a 0.34,0.34 0 0 0 -0.12,-0.37 l -1.86,-1.42 a 0.34,0.34 0 0 1 0.2,-0.61 l 2.34,-0.05 a 0.34,0.34 0 0 0 0.31,-0.22 l 0.78,-2.21 a 0.34,0.34 0 0 1 0.64,0 l 0.77,2.21 a 0.34,0.34 0 0 0 0.31,0.23 z"
     id="path23" />
  <path
     fill="#41479b"
     d="m 188.67,146.47267 -0.73,2.63 a 0.43,0.43 0 0 0 0.44,0.54 q 53.85,-3.06 101.82,21.13 15.79,7.96 31.59,22.63 a 70.63,70.61 2.7 0 1 -46.55,42.28 70.6,70.6 0 0 1 -45.73,-2.48 70.58,70.58 0 0 1 -35.08,-30.89 70.63,70.64 39.1 0 1 -5.76,-55.84 z m 19.18,19.9 a 0.3,0.3 0 0 1 -0.29,-0.2 l -0.56,-1.72 a 0.3,0.3 0 0 0 -0.57,0.01 l -0.56,1.71 a 0.3,0.3 0 0 1 -0.28,0.21 h -1.8 a 0.3,0.3 0 0 0 -0.18,0.55 l 1.46,1.05 a 0.3,0.3 0 0 1 0.11,0.34 l -0.55,1.71 a 0.3,0.3 0 0 0 0.46,0.34 l 1.46,-1.06 a 0.3,0.3 0 0 1 0.35,0 l 1.46,1.05 a 0.3,0.3 0 0 0 0.46,-0.33 l -0.56,-1.72 a 0.3,0.3 0 0 1 0.11,-0.33 l 1.46,-1.07 a 0.3,0.3 0 0 0 -0.18,-0.54 z m 13.45,11.31 q 0.02,-0.34 -0.13,-0.64 -0.45,-0.95 -0.78,0.05 l -0.28,0.84 q -0.19,0.58 -0.79,0.58 h -1.08 q -1.02,0 -0.2,0.61 1.34,1.02 0.85,2.64 -0.38,1.27 0.57,0.35 1.02,-0.99 2.13,-0.25 1.19,0.78 0.82,-0.59 -0.32,-1.16 0.58,-1.94 0.76,-0.67 -0.24,-0.81 l -0.85,-0.12 q -0.63,-0.08 -0.6,-0.72 z m -16.12,2.94 a 0.34,0.34 0 0 1 -0.31,-0.22 l -0.73,-2.11 a 0.34,0.34 0 0 0 -0.64,0 l -0.75,2.09 a 0.34,0.34 0 0 1 -0.32,0.23 l -2.22,0.04 a 0.34,0.34 0 0 0 -0.21,0.61 l 1.77,1.37 a 0.34,0.34 0 0 1 0.11,0.36 l -0.64,2.14 a 0.34,0.34 0 0 0 0.51,0.38 l 1.85,-1.26 a 0.34,0.34 0 0 1 0.38,0 l 1.83,1.28 a 0.34,0.34 0 0 0 0.52,-0.38 l -0.62,-2.14 a 0.34,0.34 0 0 1 0.12,-0.36 l 1.77,-1.35 a 0.34,0.34 0 0 0 -0.19,-0.61 z m 44.38,2.38 -0.52,-1.51 q -0.31,-0.93 -0.77,-0.06 -0.41,0.77 -0.62,1.6 -0.15,0.54 -0.71,0.48 -0.96,-0.11 -1.85,0.14 -0.97,0.27 -0.12,0.81 l 1.22,0.77 a 0.85,0.86 23.2 0 1 0.37,0.94 l -0.39,1.57 q -0.39,1.56 0.8,0.48 0.74,-0.68 1.56,-0.93 0.48,-0.15 0.82,0.22 0.57,0.62 1.33,0.93 0.68,0.28 0.47,-0.42 l -0.56,-1.82 q -0.16,-0.53 0.3,-0.83 l 1.21,-0.8 q 1.06,-0.69 -0.17,-1 -0.68,-0.17 -1.35,-0.01 a 0.86,0.86 0 0 1 -1.02,-0.56 z m 11.77,14.51 a 0.73,0.73 0 0 1 -0.68,-0.49 l -1.79,-5.18 a 0.73,0.73 0 0 0 -1.38,0 l -1.79,5.18 a 0.73,0.73 0 0 1 -0.68,0.49 l -5.47,0.1 a 0.73,0.73 0 0 0 -0.43,1.31 l 4.37,3.3 a 0.73,0.73 0 0 1 0.26,0.8 l -1.6,5.24 a 0.73,0.73 0 0 0 1.12,0.81 l 4.49,-3.14 a 0.73,0.73 0 0 1 0.84,0 l 4.49,3.14 a 0.73,0.73 0 0 0 1.12,-0.81 l -1.6,-5.24 a 0.73,0.73 0 0 1 0.26,-0.8 l 4.37,-3.3 a 0.73,0.73 0 0 0 -0.43,-1.31 z m -42.95,-2.22 a 0.34,0.34 0 0 1 -0.3,-0.22 l -1.05,-2.82 a 0.34,0.34 0 0 0 -0.64,0 l -1.05,2.82 a 0.34,0.34 0 0 1 -0.3,0.22 l -3,0.13 a 0.34,0.34 0 0 0 -0.2,0.6 l 2.35,1.87 a 0.34,0.34 0 0 1 0.12,0.36 l -0.81,2.89 a 0.34,0.34 0 0 0 0.52,0.37 l 2.5,-1.66 a 0.34,0.34 0 0 1 0.38,0 l 2.5,1.66 a 0.34,0.34 0 0 0 0.52,-0.37 l -0.81,-2.89 a 0.34,0.34 0 0 1 0.12,-0.36 l 2.35,-1.87 a 0.34,0.34 0 0 0 -0.2,-0.6 z m 84.51,-0.19 a 0.33,0.33 0 0 1 -0.3,-0.22 l -0.74,-2.15 a 0.33,0.33 0 0 0 -0.62,0 l -0.74,2.15 a 0.33,0.33 0 0 1 -0.3,0.22 l -2.27,0.04 a 0.33,0.33 0 0 0 -0.19,0.59 l 1.81,1.36 a 0.33,0.33 0 0 1 0.12,0.36 l -0.67,2.17 a 0.33,0.33 0 0 0 0.5,0.37 l 1.86,-1.31 a 0.33,0.33 0 0 1 0.38,0 l 1.86,1.31 a 0.33,0.33 0 0 0 0.5,-0.37 l -0.67,-2.17 a 0.33,0.33 0 0 1 0.12,-0.36 l 1.81,-1.36 a 0.33,0.33 0 0 0 -0.19,-0.59 z m -60.24,12.92 a 0.34,0.34 0 0 1 -0.31,-0.23 l -0.76,-2.11 a 0.34,0.34 0 0 0 -0.64,0 l -0.74,2.11 a 0.34,0.34 0 0 1 -0.31,0.23 l -2.24,0.06 a 0.34,0.34 0 0 0 -0.2,0.61 l 1.78,1.36 a 0.34,0.34 0 0 1 0.12,0.37 l -0.63,2.15 a 0.34,0.34 0 0 0 0.52,0.37 l 1.84,-1.27 a 0.34,0.34 0 0 1 0.39,0 l 1.84,1.27 a 0.34,0.34 0 0 0 0.52,-0.38 l -0.64,-2.15 a 0.34,0.34 0 0 1 0.12,-0.36 l 1.77,-1.37 a 0.34,0.34 0 0 0 -0.2,-0.61 z m 40.38,0.86 a 0.33,0.33 0 0 1 -0.31,-0.22 l -0.72,-2.13 a 0.33,0.33 0 0 0 -0.63,0 l -0.73,2.12 a 0.33,0.33 0 0 1 -0.31,0.22 l -2.24,0.04 a 0.33,0.33 0 0 0 -0.2,0.59 l 1.8,1.35 a 0.33,0.33 0 0 1 0.11,0.37 l -0.66,2.14 a 0.33,0.33 0 0 0 0.51,0.37 l 1.84,-1.29 a 0.33,0.33 0 0 1 0.38,0 l 1.83,1.3 a 0.33,0.33 0 0 0 0.51,-0.37 l -0.66,-2.15 a 0.33,0.33 0 0 1 0.12,-0.36 l 1.8,-1.35 a 0.33,0.33 0 0 0 -0.19,-0.59 z m 12.28,-0.55 q -0.14,-0.52 -0.41,-0.98 -0.49,-0.83 -0.72,0.11 l -0.25,1.07 a 0.65,0.65 0 0 1 -0.79,0.47 q -0.63,-0.15 -1.18,0.07 -0.78,0.33 0,0.67 1.72,0.76 0.78,2.36 -0.47,0.79 0.42,0.57 0.41,-0.1 0.64,-0.44 a 0.97,0.97 0 0 1 1.52,-0.07 q 0.36,0.4 0.86,0.51 0.64,0.14 0.41,-0.48 l -0.36,-0.99 q -0.21,-0.56 0.27,-0.92 l 0.99,-0.76 q 0.86,-0.67 -0.22,-0.61 l -1.07,0.06 q -0.7,0.04 -0.89,-0.64 z"
     id="path24" />
  <path
     fill="#f5f5f5"
     d="m 207.85,166.37267 h 1.8 a 0.3,0.3 0 0 1 0.18,0.54 l -1.46,1.07 a 0.3,0.3 0 0 0 -0.11,0.33 l 0.56,1.72 a 0.3,0.3 0 0 1 -0.46,0.33 l -1.46,-1.05 a 0.3,0.3 0 0 0 -0.35,0 l -1.46,1.06 a 0.3,0.3 0 0 1 -0.46,-0.34 l 0.55,-1.71 a 0.3,0.3 0 0 0 -0.11,-0.34 l -1.46,-1.05 a 0.3,0.3 0 0 1 0.18,-0.55 h 1.8 a 0.3,0.3 0 0 0 0.28,-0.21 l 0.56,-1.71 a 0.3,0.3 0 0 1 0.57,-0.01 l 0.56,1.72 a 0.3,0.3 0 0 0 0.29,0.2 z"
     id="path25" />
  <path
     fill="#f5f5f5"
     d="m 221.9,178.40267 0.85,0.12 q 1,0.14 0.24,0.81 -0.9,0.78 -0.58,1.94 0.37,1.37 -0.82,0.59 -1.11,-0.74 -2.13,0.25 -0.95,0.92 -0.57,-0.35 0.49,-1.62 -0.85,-2.64 -0.82,-0.61 0.2,-0.61 h 1.08 q 0.6,0 0.79,-0.58 l 0.28,-0.84 q 0.33,-1 0.78,-0.05 0.15,0.3 0.13,0.64 -0.03,0.64 0.6,0.72 z"
     id="path26" />
  <path
     fill="#f5f5f5"
     d="m 205.18,180.62267 2.23,0.07 a 0.34,0.34 0 0 1 0.19,0.61 l -1.77,1.35 a 0.34,0.34 0 0 0 -0.12,0.36 l 0.62,2.14 a 0.34,0.34 0 0 1 -0.52,0.38 l -1.83,-1.28 a 0.34,0.34 0 0 0 -0.38,0 l -1.85,1.26 a 0.34,0.34 0 0 1 -0.51,-0.38 l 0.64,-2.14 a 0.34,0.34 0 0 0 -0.11,-0.36 l -1.77,-1.37 a 0.34,0.34 0 0 1 0.21,-0.61 l 2.22,-0.04 a 0.34,0.34 0 0 0 0.32,-0.23 l 0.75,-2.09 a 0.34,0.34 0 0 1 0.64,0 l 0.73,2.11 a 0.34,0.34 0 0 0 0.31,0.22 z"
     id="path27" />
  <path
     fill="#f5f5f5"
     d="m 250.58,183.56267 q 0.67,-0.16 1.35,0.01 1.23,0.31 0.17,1 l -1.21,0.8 q -0.46,0.3 -0.3,0.83 l 0.56,1.82 q 0.21,0.7 -0.47,0.42 -0.76,-0.31 -1.33,-0.93 -0.34,-0.37 -0.82,-0.22 -0.82,0.25 -1.56,0.93 -1.19,1.08 -0.8,-0.48 l 0.39,-1.57 a 0.85,0.86 23.2 0 0 -0.37,-0.94 l -1.22,-0.77 q -0.85,-0.54 0.12,-0.81 0.89,-0.25 1.85,-0.14 0.56,0.06 0.71,-0.48 0.21,-0.83 0.62,-1.6 0.46,-0.87 0.77,0.06 l 0.52,1.51 a 0.86,0.86 0 0 0 1.02,0.56 z"
     id="path28" />
  <path
     fill="#f5f5f5"
     d="m 261.33,197.51267 5.47,0.1 a 0.73,0.73 0 0 1 0.43,1.31 l -4.37,3.3 a 0.73,0.73 0 0 0 -0.26,0.8 l 1.6,5.24 a 0.73,0.73 0 0 1 -1.12,0.81 l -4.49,-3.14 a 0.73,0.73 0 0 0 -0.84,0 l -4.49,3.14 a 0.73,0.73 0 0 1 -1.12,-0.81 l 1.6,-5.24 a 0.73,0.73 0 0 0 -0.26,-0.8 l -4.37,-3.3 a 0.73,0.73 0 0 1 0.43,-1.31 l 5.47,-0.1 a 0.73,0.73 0 0 0 0.68,-0.49 l 1.79,-5.18 a 0.73,0.73 0 0 1 1.38,0 l 1.79,5.18 a 0.73,0.73 0 0 0 0.68,0.49 z"
     id="path29" />
  <path
     fill="#f5f5f5"
     d="m 218.38,195.29267 3,0.13 a 0.34,0.34 0 0 1 0.2,0.6 l -2.35,1.87 a 0.34,0.34 0 0 0 -0.12,0.36 l 0.81,2.89 a 0.34,0.34 0 0 1 -0.52,0.37 l -2.5,-1.66 a 0.34,0.34 0 0 0 -0.38,0 l -2.5,1.66 a 0.34,0.34 0 0 1 -0.52,-0.37 l 0.81,-2.89 a 0.34,0.34 0 0 0 -0.12,-0.36 l -2.35,-1.87 a 0.34,0.34 0 0 1 0.2,-0.6 l 3,-0.13 a 0.34,0.34 0 0 0 0.3,-0.22 l 1.05,-2.82 a 0.34,0.34 0 0 1 0.64,0 l 1.05,2.82 a 0.34,0.34 0 0 0 0.3,0.22 z"
     id="path30" />
  <path
     fill="#f5f5f5"
     d="m 302.89,195.10267 2.27,0.04 a 0.33,0.33 0 0 1 0.19,0.59 l -1.81,1.36 a 0.33,0.33 0 0 0 -0.12,0.36 l 0.67,2.17 a 0.33,0.33 0 0 1 -0.5,0.37 l -1.86,-1.31 a 0.33,0.33 0 0 0 -0.38,0 l -1.86,1.31 a 0.33,0.33 0 0 1 -0.5,-0.37 l 0.67,-2.17 a 0.33,0.33 0 0 0 -0.12,-0.36 l -1.81,-1.36 a 0.33,0.33 0 0 1 0.19,-0.59 l 2.27,-0.04 a 0.33,0.33 0 0 0 0.3,-0.22 l 0.74,-2.15 a 0.33,0.33 0 0 1 0.62,0 l 0.74,2.15 a 0.33,0.33 0 0 0 0.3,0.22 z"
     id="path31" />
  <path
     fill="#f5f5f5"
     d="m 242.65,208.02267 2.23,0.05 a 0.34,0.34 0 0 1 0.2,0.61 l -1.77,1.37 a 0.34,0.34 0 0 0 -0.12,0.36 l 0.64,2.15 a 0.34,0.34 0 0 1 -0.52,0.38 l -1.84,-1.27 a 0.34,0.34 0 0 0 -0.39,0 l -1.84,1.27 a 0.34,0.34 0 0 1 -0.52,-0.37 l 0.63,-2.15 a 0.34,0.34 0 0 0 -0.12,-0.37 l -1.78,-1.36 a 0.34,0.34 0 0 1 0.2,-0.61 l 2.24,-0.06 a 0.34,0.34 0 0 0 0.31,-0.23 l 0.74,-2.11 a 0.34,0.34 0 0 1 0.64,0 l 0.76,2.11 a 0.34,0.34 0 0 0 0.31,0.23 z"
     id="path32" />
  <path
     fill="#f5f5f5"
     d="m 283.03,208.88267 2.25,0.04 a 0.33,0.33 0 0 1 0.19,0.59 l -1.8,1.35 a 0.33,0.33 0 0 0 -0.12,0.36 l 0.66,2.15 a 0.33,0.33 0 0 1 -0.51,0.37 l -1.83,-1.3 a 0.33,0.33 0 0 0 -0.38,0 l -1.84,1.29 a 0.33,0.33 0 0 1 -0.51,-0.37 l 0.66,-2.14 a 0.33,0.33 0 0 0 -0.11,-0.37 l -1.8,-1.35 a 0.33,0.33 0 0 1 0.2,-0.59 l 2.24,-0.04 a 0.33,0.33 0 0 0 0.31,-0.22 l 0.73,-2.12 a 0.33,0.33 0 0 1 0.63,0 l 0.72,2.13 a 0.33,0.33 0 0 0 0.31,0.22 z"
     id="path33" />
  <path
     fill="#f5f5f5"
     d="m 296.2,208.97267 1.07,-0.06 q 1.08,-0.06 0.22,0.61 l -0.99,0.76 q -0.48,0.36 -0.27,0.92 l 0.36,0.99 q 0.23,0.62 -0.41,0.48 -0.5,-0.11 -0.86,-0.51 a 0.97,0.97 0 0 0 -1.52,0.07 q -0.23,0.34 -0.64,0.44 -0.89,0.22 -0.42,-0.57 0.94,-1.6 -0.78,-2.36 -0.78,-0.34 0,-0.67 0.55,-0.22 1.18,-0.07 a 0.65,0.65 0 0 0 0.79,-0.47 l 0.25,-1.07 q 0.23,-0.94 0.72,-0.11 0.27,0.46 0.41,0.98 0.19,0.68 0.89,0.64 z"
     id="path34" />
</svg>
