<?xml version="1.0" encoding="UTF-8" standalone="no"?>
<svg
   version="1.1"
   viewBox="0 0 512 336.85699"
   id="svg116"
   sodipodi:docname="united-states.svg"
   width="512"
   height="336.85699"
   inkscape:version="1.3.2 (091e20ef0f, 2023-11-25, custom)"
   xmlns:inkscape="http://www.inkscape.org/namespaces/inkscape"
   xmlns:sodipodi="http://sodipodi.sourceforge.net/DTD/sodipodi-0.dtd"
   xmlns="http://www.w3.org/2000/svg"
   xmlns:svg="http://www.w3.org/2000/svg">
  <defs
     id="defs116" />
  <sodipodi:namedview
     id="namedview116"
     pagecolor="#505050"
     bordercolor="#eeeeee"
     borderopacity="1"
     inkscape:showpageshadow="0"
     inkscape:pageopacity="0"
     inkscape:pagecheckerboard="0"
     inkscape:deskcolor="#505050"
     inkscape:zoom="0.74414063"
     inkscape:cx="219.04462"
     inkscape:cy="413.22835"
     inkscape:window-width="1920"
     inkscape:window-height="997"
     inkscape:window-x="0"
     inkscape:window-y="36"
     inkscape:window-maximized="1"
     inkscape:current-layer="svg116" />
  <g
     stroke-width="2"
     fill="none"
     stroke-linecap="butt"
     id="g61"
     transform="translate(0,-87.11322)">
    <path
       stroke="#a04978"
       vector-effect="non-scaling-stroke"
       d="m 230.9,88.06 q 7.53,2.56 7.44,9.19 -0.1,8.36 0.05,16.79"
       id="path1" />
    <path
       stroke="#9b9ec8"
       vector-effect="non-scaling-stroke"
       d="m 238.39,114.04 -0.03,25.81"
       id="path2" />
    <path
       stroke="#a04978"
       vector-effect="non-scaling-stroke"
       d="m 238.36,139.85 0.03,25.85"
       id="path3" />
    <path
       stroke="#9b9ec8"
       vector-effect="non-scaling-stroke"
       d="m 238.39,165.7 0.03,25.8"
       id="path4" />
    <path
       stroke="#a04978"
       vector-effect="non-scaling-stroke"
       d="m 238.42,191.5 -0.01,25.77"
       id="path5" />
    <path
       stroke="#9b9ec8"
       vector-effect="non-scaling-stroke"
       d="m 238.41,217.27 v 25.77"
       id="path6" />
    <path
       stroke="#a04978"
       vector-effect="non-scaling-stroke"
       d="m 238.41,243.04 q -0.09,7.61 -0.14,14.94 -0.03,4.42 -1.13,6.33 -1.53,2.67 -4.95,4.63"
       id="path7" />
    <path
       stroke="#9b9ec8"
       vector-effect="non-scaling-stroke"
       d="m 232.19,268.94 q -1.53,-0.17 -3.44,-0.17 -108.5,0.22 -217.02,0.22 -4.85,0 -6.81,-0.94 Q 1.69,266.48 0,262.57"
       id="path8" />
    <path
       stroke="#9b9ec8"
       vector-effect="non-scaling-stroke"
       d="m 27.28,114.42 a 0.75,0.75 0 0 1 -0.69,-0.5 l -1.87,-5.38 a 0.75,0.75 0 0 0 -1.42,0 l -1.87,5.38 a 0.75,0.75 0 0 1 -0.69,0.5 l -5.7,0.12 a 0.75,0.75 0 0 0 -0.44,1.35 l 4.54,3.44 a 0.75,0.75 0 0 1 0.27,0.82 l -1.65,5.45 a 0.75,0.75 0 0 0 1.14,0.83 l 4.68,-3.25 a 0.75,0.75 0 0 1 0.86,0 l 4.68,3.25 a 0.75,0.75 0 0 0 1.14,-0.83 l -1.65,-5.45 a 0.75,0.75 0 0 1 0.27,-0.82 l 4.54,-3.44 a 0.75,0.75 0 0 0 -0.44,-1.35 l -5.7,-0.12"
       id="path9" />
    <path
       stroke="#9b9ec8"
       vector-effect="non-scaling-stroke"
       d="m 74.86,114.42 a 0.75,0.75 0 0 1 -0.69,-0.51 l -1.88,-5.38 a 0.75,0.75 0 0 0 -1.42,0 l -1.88,5.38 a 0.75,0.75 0 0 1 -0.69,0.51 l -5.7,0.12 a 0.75,0.75 0 0 0 -0.43,1.35 l 4.53,3.44 a 0.75,0.75 0 0 1 0.27,0.82 l -1.65,5.46 a 0.75,0.75 0 0 0 1.15,0.83 l 4.68,-3.25 a 0.75,0.75 0 0 1 0.86,0 l 4.68,3.25 a 0.75,0.75 0 0 0 1.15,-0.83 l -1.65,-5.46 a 0.75,0.75 0 0 1 0.27,-0.82 l 4.53,-3.44 a 0.75,0.75 0 0 0 -0.43,-1.35 l -5.7,-0.12"
       id="path10" />
    <path
       stroke="#9b9ec8"
       vector-effect="non-scaling-stroke"
       d="m 122.44,114.4 a 0.73,0.73 0 0 1 -0.67,-0.48 l -1.91,-5.41 a 0.73,0.73 0 0 0 -1.38,0 l -1.91,5.41 a 0.73,0.73 0 0 1 -0.67,0.48 l -5.73,0.15 a 0.73,0.73 0 0 0 -0.42,1.31 l 4.54,3.49 a 0.73,0.73 0 0 1 0.26,0.79 l -1.63,5.49 a 0.73,0.73 0 0 0 1.11,0.81 l 4.73,-3.25 a 0.73,0.73 0 0 1 0.82,0 l 4.73,3.25 a 0.73,0.73 0 0 0 1.11,-0.81 l -1.63,-5.49 a 0.73,0.73 0 0 1 0.26,-0.79 l 4.54,-3.49 a 0.73,0.73 0 0 0 -0.42,-1.31 l -5.73,-0.15"
       id="path11" />
    <path
       stroke="#9b9ec8"
       vector-effect="non-scaling-stroke"
       d="m 170.04,114.42 a 0.75,0.75 0 0 1 -0.69,-0.5 l -1.87,-5.39 a 0.75,0.75 0 0 0 -1.42,0 l -1.87,5.39 a 0.75,0.75 0 0 1 -0.69,0.5 l -5.71,0.12 a 0.75,0.75 0 0 0 -0.43,1.35 l 4.54,3.44 a 0.75,0.75 0 0 1 0.27,0.82 l -1.66,5.46 a 0.75,0.75 0 0 0 1.15,0.83 l 4.68,-3.26 a 0.75,0.75 0 0 1 0.86,0 l 4.68,3.26 a 0.75,0.75 0 0 0 1.15,-0.83 l -1.66,-5.46 a 0.75,0.75 0 0 1 0.27,-0.82 l 4.54,-3.44 a 0.75,0.75 0 0 0 -0.43,-1.35 l -5.71,-0.12"
       id="path12" />
    <path
       stroke="#9b9ec8"
       vector-effect="non-scaling-stroke"
       d="m 217.62,114.41 a 0.75,0.75 0 0 1 -0.69,-0.5 l -1.88,-5.36 a 0.75,0.75 0 0 0 -1.42,0 l -1.88,5.36 a 0.75,0.75 0 0 1 -0.69,0.5 l -5.68,0.13 a 0.75,0.75 0 0 0 -0.44,1.35 l 4.52,3.45 a 0.75,0.75 0 0 1 0.26,0.81 l -1.63,5.44 a 0.75,0.75 0 0 0 1.15,0.84 l 4.67,-3.24 a 0.75,0.75 0 0 1 0.86,0 l 4.67,3.24 a 0.75,0.75 0 0 0 1.15,-0.84 l -1.63,-5.44 a 0.75,0.75 0 0 1 0.26,-0.81 l 4.52,-3.45 a 0.75,0.75 0 0 0 -0.44,-1.35 l -5.68,-0.13"
       id="path13" />
    <path
       stroke="#9b9ec8"
       vector-effect="non-scaling-stroke"
       d="m 51.06,129.47 a 0.75,0.75 0 0 1 -0.7,-0.5 l -1.86,-5.41 a 0.75,0.75 0 0 0 -1.42,0 l -1.86,5.41 a 0.75,0.75 0 0 1 -0.7,0.5 l -5.72,0.1 a 0.75,0.75 0 0 0 -0.44,1.35 l 4.57,3.45 a 0.75,0.75 0 0 1 0.27,0.81 l -1.68,5.48 a 0.75,0.75 0 0 0 1.15,0.83 l 4.69,-3.28 a 0.75,0.75 0 0 1 0.86,0 l 4.69,3.28 a 0.75,0.75 0 0 0 1.15,-0.83 l -1.68,-5.48 a 0.75,0.75 0 0 1 0.27,-0.81 l 4.57,-3.45 a 0.75,0.75 0 0 0 -0.44,-1.35 l -5.72,-0.1"
       id="path14" />
    <path
       stroke="#9b9ec8"
       vector-effect="non-scaling-stroke"
       d="m 98.67,129.47 a 0.77,0.77 0 0 1 -0.72,-0.52 l -1.84,-5.38 a 0.77,0.77 0 0 0 -1.46,0 l -1.84,5.38 a 0.77,0.77 0 0 1 -0.72,0.52 l -5.68,0.09 a 0.77,0.77 0 0 0 -0.45,1.38 l 4.55,3.42 a 0.77,0.77 0 0 1 0.27,0.84 l -1.67,5.44 a 0.77,0.77 0 0 0 1.17,0.85 l 4.66,-3.27 a 0.77,0.77 0 0 1 0.88,0 l 4.66,3.27 a 0.77,0.77 0 0 0 1.17,-0.85 l -1.67,-5.44 a 0.77,0.77 0 0 1 0.27,-0.84 l 4.55,-3.42 a 0.77,0.77 0 0 0 -0.45,-1.38 l -5.68,-0.09"
       id="path15" />
    <path
       stroke="#9b9ec8"
       vector-effect="non-scaling-stroke"
       d="m 146.24,129.45 a 0.75,0.75 0 0 1 -0.69,-0.5 l -1.87,-5.39 a 0.75,0.75 0 0 0 -1.42,0 l -1.87,5.39 a 0.75,0.75 0 0 1 -0.69,0.5 l -5.71,0.12 a 0.75,0.75 0 0 0 -0.43,1.35 l 4.54,3.44 a 0.75,0.75 0 0 1 0.27,0.82 l -1.66,5.46 a 0.75,0.75 0 0 0 1.15,0.83 l 4.68,-3.26 a 0.75,0.75 0 0 1 0.86,0 l 4.68,3.26 a 0.75,0.75 0 0 0 1.15,-0.83 l -1.66,-5.46 a 0.75,0.75 0 0 1 0.27,-0.82 l 4.54,-3.44 a 0.75,0.75 0 0 0 -0.43,-1.35 l -5.71,-0.12"
       id="path16" />
    <path
       stroke="#9b9ec8"
       vector-effect="non-scaling-stroke"
       d="m 193.82,129.45 a 0.75,0.75 0 0 1 -0.69,-0.5 l -1.87,-5.4 a 0.75,0.75 0 0 0 -1.42,0 l -1.87,5.4 a 0.75,0.75 0 0 1 -0.69,0.5 l -5.71,0.12 a 0.75,0.75 0 0 0 -0.44,1.34 l 4.55,3.45 a 0.75,0.75 0 0 1 0.27,0.82 l -1.66,5.46 a 0.75,0.75 0 0 0 1.15,0.83 l 4.68,-3.26 a 0.75,0.75 0 0 1 0.86,0 l 4.68,3.26 a 0.75,0.75 0 0 0 1.15,-0.83 l -1.66,-5.46 a 0.75,0.75 0 0 1 0.27,-0.82 l 4.55,-3.45 a 0.75,0.75 0 0 0 -0.44,-1.34 l -5.71,-0.12"
       id="path17" />
    <path
       stroke="#9b9ec8"
       vector-effect="non-scaling-stroke"
       d="m 27.28,145.07 a 0.75,0.75 0 0 1 -0.69,-0.51 l -1.88,-5.39 a 0.75,0.75 0 0 0 -1.42,0 l -1.88,5.39 a 0.75,0.75 0 0 1 -0.69,0.51 l -5.71,0.11 a 0.75,0.75 0 0 0 -0.44,1.35 l 4.55,3.45 a 0.75,0.75 0 0 1 0.27,0.82 l -1.65,5.47 a 0.75,0.75 0 0 0 1.14,0.83 l 4.69,-3.26 a 0.75,0.75 0 0 1 0.86,0 l 4.69,3.26 a 0.75,0.75 0 0 0 1.14,-0.83 l -1.65,-5.47 a 0.75,0.75 0 0 1 0.27,-0.82 l 4.55,-3.45 a 0.75,0.75 0 0 0 -0.44,-1.35 l -5.71,-0.11"
       id="path18" />
    <path
       stroke="#9b9ec8"
       vector-effect="non-scaling-stroke"
       d="m 74.87,145.07 a 0.77,0.77 0 0 1 -0.71,-0.52 l -1.85,-5.38 a 0.77,0.77 0 0 0 -1.46,0 L 69,144.55 a 0.77,0.77 0 0 1 -0.71,0.52 l -5.69,0.1 a 0.77,0.77 0 0 0 -0.45,1.38 l 4.55,3.42 a 0.77,0.77 0 0 1 0.27,0.84 l -1.67,5.44 a 0.77,0.77 0 0 0 1.18,0.86 l 4.66,-3.27 a 0.77,0.77 0 0 1 0.88,0 l 4.66,3.27 a 0.77,0.77 0 0 0 1.18,-0.86 l -1.67,-5.44 a 0.77,0.77 0 0 1 0.27,-0.84 l 4.55,-3.42 a 0.77,0.77 0 0 0 -0.45,-1.38 l -5.69,-0.1"
       id="path19" />
    <path
       stroke="#9b9ec8"
       vector-effect="non-scaling-stroke"
       d="m 122.46,145.07 a 0.75,0.75 0 0 1 -0.69,-0.51 l -1.88,-5.39 a 0.75,0.75 0 0 0 -1.42,0 l -1.88,5.39 a 0.75,0.75 0 0 1 -0.69,0.51 l -5.71,0.11 a 0.75,0.75 0 0 0 -0.44,1.35 l 4.55,3.45 a 0.75,0.75 0 0 1 0.27,0.82 l -1.65,5.47 a 0.75,0.75 0 0 0 1.14,0.83 l 4.69,-3.26 a 0.75,0.75 0 0 1 0.86,0 l 4.69,3.26 a 0.75,0.75 0 0 0 1.14,-0.83 l -1.65,-5.47 a 0.75,0.75 0 0 1 0.27,-0.82 l 4.55,-3.45 a 0.75,0.75 0 0 0 -0.44,-1.35 l -5.71,-0.11"
       id="path20" />
    <path
       stroke="#9b9ec8"
       vector-effect="non-scaling-stroke"
       d="m 170.05,145.07 a 0.77,0.77 0 0 1 -0.71,-0.52 l -1.85,-5.37 a 0.77,0.77 0 0 0 -1.46,0 l -1.85,5.37 a 0.77,0.77 0 0 1 -0.71,0.52 l -5.68,0.1 a 0.77,0.77 0 0 0 -0.45,1.38 l 4.54,3.42 a 0.77,0.77 0 0 1 0.27,0.84 l -1.66,5.44 a 0.77,0.77 0 0 0 1.17,0.85 l 4.66,-3.26 a 0.77,0.77 0 0 1 0.88,0 l 4.66,3.26 a 0.77,0.77 0 0 0 1.17,-0.85 l -1.66,-5.44 a 0.77,0.77 0 0 1 0.27,-0.84 l 4.54,-3.42 a 0.77,0.77 0 0 0 -0.45,-1.38 l -5.68,-0.1"
       id="path21" />
    <path
       stroke="#9b9ec8"
       vector-effect="non-scaling-stroke"
       d="m 217.63,145.07 a 0.77,0.77 0 0 1 -0.71,-0.52 l -1.85,-5.38 a 0.77,0.77 0 0 0 -1.46,0 l -1.85,5.38 a 0.77,0.77 0 0 1 -0.71,0.52 l -5.69,0.1 a 0.77,0.77 0 0 0 -0.45,1.38 l 4.55,3.42 a 0.77,0.77 0 0 1 0.27,0.84 l -1.67,5.44 a 0.77,0.77 0 0 0 1.18,0.86 l 4.66,-3.27 a 0.77,0.77 0 0 1 0.88,0 l 4.66,3.27 a 0.77,0.77 0 0 0 1.18,-0.86 l -1.67,-5.44 a 0.77,0.77 0 0 1 0.27,-0.84 l 4.55,-3.42 a 0.77,0.77 0 0 0 -0.45,-1.38 l -5.69,-0.1"
       id="path22" />
    <path
       stroke="#9b9ec8"
       vector-effect="non-scaling-stroke"
       d="m 51.06,160.1 a 0.74,0.74 0 0 1 -0.68,-0.5 l -1.89,-5.41 a 0.74,0.74 0 0 0 -1.4,0 l -1.89,5.41 a 0.74,0.74 0 0 1 -0.68,0.5 l -5.73,0.12 a 0.74,0.74 0 0 0 -0.43,1.33 l 4.56,3.47 a 0.74,0.74 0 0 1 0.26,0.8 l -1.65,5.49 a 0.74,0.74 0 0 0 1.13,0.82 l 4.71,-3.27 a 0.74,0.74 0 0 1 0.84,0 l 4.71,3.27 a 0.74,0.74 0 0 0 1.13,-0.82 l -1.65,-5.49 a 0.74,0.74 0 0 1 0.26,-0.8 l 4.56,-3.47 a 0.74,0.74 0 0 0 -0.43,-1.33 l -5.73,-0.12"
       id="path23" />
    <path
       stroke="#9b9ec8"
       vector-effect="non-scaling-stroke"
       d="m 98.68,160.13 a 0.77,0.77 0 0 1 -0.72,-0.52 l -1.84,-5.4 a 0.77,0.77 0 0 0 -1.46,0 l -1.84,5.4 a 0.77,0.77 0 0 1 -0.72,0.52 l -5.7,0.08 a 0.77,0.77 0 0 0 -0.45,1.39 l 4.56,3.42 a 0.77,0.77 0 0 1 0.28,0.84 l -1.68,5.45 a 0.77,0.77 0 0 0 1.18,0.85 l 4.66,-3.28 a 0.77,0.77 0 0 1 0.88,0 l 4.66,3.28 a 0.77,0.77 0 0 0 1.18,-0.85 l -1.68,-5.45 a 0.77,0.77 0 0 1 0.28,-0.84 l 4.56,-3.42 a 0.77,0.77 0 0 0 -0.45,-1.39 l -5.7,-0.08"
       id="path24" />
    <path
       stroke="#9b9ec8"
       vector-effect="non-scaling-stroke"
       d="m 146.25,160.11 a 0.75,0.75 0 0 1 -0.69,-0.5 l -1.87,-5.39 a 0.75,0.75 0 0 0 -1.42,0 l -1.87,5.39 a 0.75,0.75 0 0 1 -0.69,0.5 l -5.71,0.12 a 0.75,0.75 0 0 0 -0.43,1.35 l 4.54,3.44 a 0.75,0.75 0 0 1 0.27,0.82 l -1.66,5.46 a 0.75,0.75 0 0 0 1.15,0.83 l 4.68,-3.26 a 0.75,0.75 0 0 1 0.86,0 l 4.68,3.26 a 0.75,0.75 0 0 0 1.15,-0.83 l -1.66,-5.46 a 0.75,0.75 0 0 1 0.27,-0.82 l 4.54,-3.44 a 0.75,0.75 0 0 0 -0.43,-1.35 l -5.71,-0.12"
       id="path25" />
    <path
       stroke="#9b9ec8"
       vector-effect="non-scaling-stroke"
       d="m 193.82,160.14 a 0.76,0.76 0 0 1 -0.7,-0.52 l -1.85,-5.4 a 0.76,0.76 0 0 0 -1.44,0 l -1.85,5.4 a 0.76,0.76 0 0 1 -0.7,0.52 l -5.72,0.08 a 0.76,0.76 0 0 0 -0.44,1.37 l 4.57,3.43 a 0.76,0.76 0 0 1 0.27,0.83 l -1.68,5.46 a 0.76,0.76 0 0 0 1.16,0.85 l 4.67,-3.29 a 0.76,0.76 0 0 1 0.88,0 l 4.67,3.29 a 0.76,0.76 0 0 0 1.16,-0.85 l -1.68,-5.46 a 0.76,0.76 0 0 1 0.27,-0.83 l 4.57,-3.43 a 0.76,0.76 0 0 0 -0.44,-1.37 l -5.72,-0.08"
       id="path26" />
    <path
       stroke="#9b9ec8"
       vector-effect="non-scaling-stroke"
       d="m 27.27,175.72 a 0.75,0.75 0 0 1 -0.69,-0.5 l -1.87,-5.4 a 0.75,0.75 0 0 0 -1.42,0 l -1.87,5.4 a 0.75,0.75 0 0 1 -0.69,0.5 l -5.71,0.12 a 0.75,0.75 0 0 0 -0.44,1.34 l 4.55,3.45 a 0.75,0.75 0 0 1 0.27,0.82 l -1.66,5.46 a 0.75,0.75 0 0 0 1.15,0.83 l 4.68,-3.26 a 0.75,0.75 0 0 1 0.86,0 l 4.68,3.26 a 0.75,0.75 0 0 0 1.15,-0.83 l -1.66,-5.46 a 0.75,0.75 0 0 1 0.27,-0.82 l 4.55,-3.45 a 0.75,0.75 0 0 0 -0.44,-1.34 l -5.71,-0.12"
       id="path27" />
    <path
       stroke="#9b9ec8"
       vector-effect="non-scaling-stroke"
       d="m 74.85,175.72 a 0.75,0.75 0 0 1 -0.69,-0.5 l -1.87,-5.39 a 0.75,0.75 0 0 0 -1.42,0 L 69,175.22 a 0.75,0.75 0 0 1 -0.69,0.5 l -5.71,0.12 a 0.75,0.75 0 0 0 -0.43,1.35 l 4.54,3.44 a 0.75,0.75 0 0 1 0.27,0.82 l -1.66,5.46 a 0.75,0.75 0 0 0 1.15,0.83 l 4.68,-3.26 a 0.75,0.75 0 0 1 0.86,0 l 4.68,3.26 a 0.75,0.75 0 0 0 1.15,-0.83 l -1.66,-5.46 a 0.75,0.75 0 0 1 0.27,-0.82 l 4.54,-3.44 a 0.75,0.75 0 0 0 -0.43,-1.35 l -5.71,-0.12"
       id="path28" />
    <path
       stroke="#9b9ec8"
       vector-effect="non-scaling-stroke"
       d="m 122.45,175.74 a 0.75,0.75 0 0 1 -0.7,-0.5 l -1.86,-5.41 a 0.75,0.75 0 0 0 -1.42,0 l -1.86,5.41 a 0.75,0.75 0 0 1 -0.7,0.5 l -5.72,0.1 a 0.75,0.75 0 0 0 -0.44,1.35 l 4.57,3.45 a 0.75,0.75 0 0 1 0.27,0.81 l -1.68,5.48 a 0.75,0.75 0 0 0 1.15,0.83 l 4.69,-3.28 a 0.75,0.75 0 0 1 0.86,0 l 4.69,3.28 a 0.75,0.75 0 0 0 1.15,-0.83 l -1.68,-5.48 a 0.75,0.75 0 0 1 0.27,-0.81 l 4.57,-3.45 a 0.75,0.75 0 0 0 -0.44,-1.35 l -5.72,-0.1"
       id="path29" />
    <path
       stroke="#9b9ec8"
       vector-effect="non-scaling-stroke"
       d="m 170.03,175.74 a 0.75,0.75 0 0 1 -0.7,-0.5 l -1.86,-5.42 a 0.75,0.75 0 0 0 -1.42,0 l -1.86,5.42 a 0.75,0.75 0 0 1 -0.7,0.5 l -5.73,0.1 a 0.75,0.75 0 0 0 -0.44,1.35 l 4.58,3.45 a 0.75,0.75 0 0 1 0.27,0.82 l -1.68,5.47 a 0.75,0.75 0 0 0 1.15,0.84 l 4.69,-3.29 a 0.75,0.75 0 0 1 0.86,0 l 4.69,3.29 a 0.75,0.75 0 0 0 1.15,-0.84 l -1.68,-5.47 a 0.75,0.75 0 0 1 0.27,-0.82 l 4.58,-3.45 a 0.75,0.75 0 0 0 -0.44,-1.35 l -5.73,-0.1"
       id="path30" />
    <path
       stroke="#9b9ec8"
       vector-effect="non-scaling-stroke"
       d="m 217.63,175.74 a 0.76,0.76 0 0 1 -0.71,-0.51 l -1.85,-5.38 a 0.76,0.76 0 0 0 -1.44,0 l -1.85,5.38 a 0.76,0.76 0 0 1 -0.71,0.51 l -5.69,0.1 a 0.76,0.76 0 0 0 -0.44,1.37 l 4.54,3.42 a 0.76,0.76 0 0 1 0.27,0.83 l -1.66,5.45 a 0.76,0.76 0 0 0 1.16,0.84 l 4.66,-3.26 a 0.76,0.76 0 0 1 0.88,0 l 4.66,3.26 a 0.76,0.76 0 0 0 1.16,-0.84 l -1.66,-5.45 a 0.76,0.76 0 0 1 0.27,-0.83 l 4.54,-3.42 a 0.76,0.76 0 0 0 -0.44,-1.37 l -5.69,-0.1"
       id="path31" />
    <path
       stroke="#9b9ec8"
       vector-effect="non-scaling-stroke"
       d="m 51.06,190.75 a 0.75,0.75 0 0 1 -0.69,-0.5 l -1.87,-5.4 a 0.75,0.75 0 0 0 -1.42,0 l -1.87,5.4 a 0.75,0.75 0 0 1 -0.69,0.5 l -5.71,0.12 a 0.75,0.75 0 0 0 -0.44,1.34 l 4.55,3.45 a 0.75,0.75 0 0 1 0.27,0.82 l -1.66,5.46 a 0.75,0.75 0 0 0 1.15,0.83 l 4.68,-3.26 a 0.75,0.75 0 0 1 0.86,0 l 4.68,3.26 a 0.75,0.75 0 0 0 1.15,-0.83 l -1.66,-5.46 a 0.75,0.75 0 0 1 0.27,-0.82 l 4.55,-3.45 a 0.75,0.75 0 0 0 -0.44,-1.34 l -5.71,-0.12"
       id="path32" />
    <path
       stroke="#9b9ec8"
       vector-effect="non-scaling-stroke"
       d="m 98.67,190.77 a 0.77,0.77 0 0 1 -0.72,-0.52 l -1.84,-5.4 a 0.77,0.77 0 0 0 -1.46,0 l -1.84,5.4 a 0.77,0.77 0 0 1 -0.72,0.52 l -5.7,0.08 a 0.77,0.77 0 0 0 -0.45,1.39 l 4.56,3.42 a 0.77,0.77 0 0 1 0.28,0.84 l -1.68,5.45 a 0.77,0.77 0 0 0 1.18,0.85 l 4.66,-3.28 a 0.77,0.77 0 0 1 0.88,0 l 4.66,3.28 a 0.77,0.77 0 0 0 1.18,-0.85 l -1.68,-5.45 a 0.77,0.77 0 0 1 0.28,-0.84 l 4.56,-3.42 a 0.77,0.77 0 0 0 -0.45,-1.39 l -5.7,-0.08"
       id="path33" />
    <path
       stroke="#9b9ec8"
       vector-effect="non-scaling-stroke"
       d="m 146.25,190.75 a 0.75,0.75 0 0 1 -0.69,-0.51 l -1.88,-5.39 a 0.75,0.75 0 0 0 -1.42,0 l -1.88,5.39 a 0.75,0.75 0 0 1 -0.69,0.51 l -5.7,0.12 a 0.75,0.75 0 0 0 -0.44,1.34 l 4.54,3.45 a 0.75,0.75 0 0 1 0.27,0.82 l -1.65,5.46 a 0.75,0.75 0 0 0 1.15,0.83 l 4.68,-3.25 a 0.75,0.75 0 0 1 0.86,0 l 4.68,3.25 a 0.75,0.75 0 0 0 1.15,-0.83 l -1.65,-5.46 a 0.75,0.75 0 0 1 0.27,-0.82 l 4.54,-3.45 a 0.75,0.75 0 0 0 -0.44,-1.34 l -5.7,-0.12"
       id="path34" />
    <path
       stroke="#9b9ec8"
       vector-effect="non-scaling-stroke"
       d="m 193.83,190.78 a 0.77,0.77 0 0 1 -0.72,-0.53 l -1.83,-5.41 a 0.77,0.77 0 0 0 -1.46,0 l -1.83,5.41 a 0.77,0.77 0 0 1 -0.72,0.53 l -5.72,0.07 a 0.77,0.77 0 0 0 -0.45,1.39 l 4.58,3.41 a 0.77,0.77 0 0 1 0.28,0.85 l -1.7,5.46 a 0.77,0.77 0 0 0 1.18,0.86 l 4.67,-3.31 a 0.77,0.77 0 0 1 0.88,0 l 4.67,3.31 a 0.77,0.77 0 0 0 1.18,-0.86 l -1.7,-5.46 a 0.77,0.77 0 0 1 0.28,-0.85 l 4.58,-3.41 a 0.77,0.77 0 0 0 -0.45,-1.39 l -5.72,-0.07"
       id="path35" />
    <path
       stroke="#9b9ec8"
       vector-effect="non-scaling-stroke"
       d="m 27.29,206.43 a 0.77,0.77 0 0 1 -0.73,-0.52 l -1.82,-5.43 a 0.77,0.77 0 0 0 -1.46,0 l -1.82,5.43 a 0.77,0.77 0 0 1 -0.73,0.52 l -5.72,0.06 a 0.77,0.77 0 0 0 -0.45,1.39 l 4.6,3.41 a 0.77,0.77 0 0 1 0.27,0.85 l -1.71,5.46 a 0.77,0.77 0 0 0 1.18,0.85 l 4.66,-3.31 a 0.77,0.77 0 0 1 0.9,0 l 4.66,3.31 a 0.77,0.77 0 0 0 1.18,-0.85 l -1.71,-5.46 a 0.77,0.77 0 0 1 0.27,-0.85 l 4.6,-3.41 a 0.77,0.77 0 0 0 -0.45,-1.39 l -5.72,-0.06"
       id="path36" />
    <path
       stroke="#9b9ec8"
       vector-effect="non-scaling-stroke"
       d="m 74.86,206.39 a 0.75,0.75 0 0 1 -0.69,-0.51 l -1.88,-5.37 a 0.75,0.75 0 0 0 -1.42,0 l -1.88,5.37 a 0.75,0.75 0 0 1 -0.69,0.51 l -5.69,0.12 a 0.75,0.75 0 0 0 -0.44,1.35 l 4.54,3.44 a 0.75,0.75 0 0 1 0.26,0.82 l -1.64,5.45 a 0.75,0.75 0 0 0 1.14,0.83 l 4.68,-3.24 a 0.75,0.75 0 0 1 0.86,0 l 4.68,3.24 a 0.75,0.75 0 0 0 1.14,-0.83 l -1.64,-5.45 a 0.75,0.75 0 0 1 0.26,-0.82 l 4.54,-3.44 a 0.75,0.75 0 0 0 -0.44,-1.35 l -5.69,-0.12"
       id="path37" />
    <path
       stroke="#9b9ec8"
       vector-effect="non-scaling-stroke"
       d="m 122.44,206.39 a 0.74,0.74 0 0 1 -0.68,-0.5 l -1.89,-5.38 a 0.74,0.74 0 0 0 -1.4,0 l -1.89,5.38 a 0.74,0.74 0 0 1 -0.68,0.5 l -5.7,0.13 a 0.74,0.74 0 0 0 -0.43,1.33 l 4.53,3.46 a 0.74,0.74 0 0 1 0.26,0.8 l -1.63,5.46 a 0.74,0.74 0 0 0 1.13,0.83 l 4.69,-3.25 a 0.74,0.74 0 0 1 0.84,0 l 4.69,3.25 a 0.74,0.74 0 0 0 1.13,-0.83 l -1.63,-5.46 a 0.74,0.74 0 0 1 0.26,-0.8 l 4.53,-3.46 a 0.74,0.74 0 0 0 -0.43,-1.33 l -5.7,-0.13"
       id="path38" />
    <path
       stroke="#9b9ec8"
       vector-effect="non-scaling-stroke"
       d="m 170.05,206.39 a 0.75,0.75 0 0 1 -0.69,-0.51 l -1.88,-5.37 a 0.75,0.75 0 0 0 -1.42,0 l -1.88,5.37 a 0.75,0.75 0 0 1 -0.69,0.51 l -5.69,0.12 a 0.75,0.75 0 0 0 -0.44,1.35 l 4.54,3.44 a 0.75,0.75 0 0 1 0.26,0.82 l -1.64,5.45 a 0.75,0.75 0 0 0 1.14,0.83 l 4.68,-3.24 a 0.75,0.75 0 0 1 0.86,0 l 4.68,3.24 a 0.75,0.75 0 0 0 1.14,-0.83 l -1.64,-5.45 a 0.75,0.75 0 0 1 0.26,-0.82 l 4.54,-3.44 a 0.75,0.75 0 0 0 -0.44,-1.35 l -5.69,-0.12"
       id="path39" />
    <path
       stroke="#9b9ec8"
       vector-effect="non-scaling-stroke"
       d="m 217.62,206.39 a 0.75,0.75 0 0 1 -0.69,-0.5 l -1.88,-5.37 a 0.75,0.75 0 0 0 -1.42,0 l -1.88,5.37 a 0.75,0.75 0 0 1 -0.69,0.5 l -5.68,0.13 a 0.75,0.75 0 0 0 -0.43,1.34 l 4.52,3.44 a 0.75,0.75 0 0 1 0.26,0.82 l -1.63,5.44 a 0.75,0.75 0 0 0 1.14,0.83 l 4.67,-3.23 a 0.75,0.75 0 0 1 0.86,0 l 4.67,3.23 a 0.75,0.75 0 0 0 1.14,-0.83 l -1.63,-5.44 a 0.75,0.75 0 0 1 0.26,-0.82 l 4.52,-3.44 a 0.75,0.75 0 0 0 -0.43,-1.34 l -5.68,-0.13"
       id="path40" />
    <path
       stroke="#9b9ec8"
       vector-effect="non-scaling-stroke"
       d="m 51.07,221.42 a 0.75,0.75 0 0 1 -0.69,-0.51 l -1.88,-5.39 a 0.75,0.75 0 0 0 -1.42,0 l -1.88,5.39 a 0.75,0.75 0 0 1 -0.69,0.51 l -5.71,0.11 a 0.75,0.75 0 0 0 -0.44,1.35 l 4.55,3.45 a 0.75,0.75 0 0 1 0.27,0.82 l -1.65,5.47 a 0.75,0.75 0 0 0 1.14,0.83 l 4.69,-3.26 a 0.75,0.75 0 0 1 0.86,0 l 4.69,3.26 a 0.75,0.75 0 0 0 1.14,-0.83 l -1.65,-5.47 a 0.75,0.75 0 0 1 0.27,-0.82 l 4.55,-3.45 a 0.75,0.75 0 0 0 -0.44,-1.35 l -5.71,-0.11"
       id="path41" />
    <path
       stroke="#9b9ec8"
       vector-effect="non-scaling-stroke"
       d="m 98.66,221.43 a 0.76,0.76 0 0 1 -0.71,-0.51 l -1.85,-5.38 a 0.76,0.76 0 0 0 -1.44,0 l -1.85,5.38 a 0.76,0.76 0 0 1 -0.71,0.51 l -5.69,0.1 a 0.76,0.76 0 0 0 -0.44,1.37 l 4.54,3.42 a 0.76,0.76 0 0 1 0.27,0.83 l -1.66,5.45 a 0.76,0.76 0 0 0 1.16,0.84 l 4.66,-3.26 a 0.76,0.76 0 0 1 0.88,0 l 4.66,3.26 a 0.76,0.76 0 0 0 1.16,-0.84 l -1.66,-5.45 a 0.76,0.76 0 0 1 0.27,-0.83 l 4.54,-3.42 a 0.76,0.76 0 0 0 -0.44,-1.37 l -5.69,-0.1"
       id="path42" />
    <path
       stroke="#9b9ec8"
       vector-effect="non-scaling-stroke"
       d="m 146.24,221.42 a 0.75,0.75 0 0 1 -0.69,-0.5 l -1.87,-5.4 a 0.75,0.75 0 0 0 -1.42,0 l -1.87,5.4 a 0.75,0.75 0 0 1 -0.69,0.5 l -5.72,0.11 a 0.75,0.75 0 0 0 -0.44,1.35 l 4.56,3.45 a 0.75,0.75 0 0 1 0.27,0.82 l -1.67,5.47 a 0.75,0.75 0 0 0 1.15,0.83 l 4.69,-3.27 a 0.75,0.75 0 0 1 0.86,0 l 4.69,3.27 a 0.75,0.75 0 0 0 1.15,-0.83 l -1.67,-5.47 a 0.75,0.75 0 0 1 0.27,-0.82 l 4.56,-3.45 a 0.75,0.75 0 0 0 -0.44,-1.35 l -5.72,-0.11"
       id="path43" />
    <path
       stroke="#9b9ec8"
       vector-effect="non-scaling-stroke"
       d="m 193.82,221.41 a 0.75,0.75 0 0 1 -0.69,-0.5 l -1.87,-5.39 a 0.75,0.75 0 0 0 -1.42,0 l -1.87,5.39 a 0.75,0.75 0 0 1 -0.69,0.5 l -5.71,0.12 a 0.75,0.75 0 0 0 -0.43,1.35 l 4.54,3.44 a 0.75,0.75 0 0 1 0.27,0.82 l -1.66,5.46 a 0.75,0.75 0 0 0 1.15,0.83 l 4.68,-3.26 a 0.75,0.75 0 0 1 0.86,0 l 4.68,3.26 a 0.75,0.75 0 0 0 1.15,-0.83 l -1.66,-5.46 a 0.75,0.75 0 0 1 0.27,-0.82 l 4.54,-3.44 a 0.75,0.75 0 0 0 -0.43,-1.35 l -5.71,-0.12"
       id="path44" />
    <path
       stroke="#9b9ec8"
       vector-effect="non-scaling-stroke"
       d="m 27.28,237.05 a 0.76,0.76 0 0 1 -0.7,-0.51 l -1.86,-5.42 a 0.76,0.76 0 0 0 -1.44,0 l -1.86,5.42 a 0.76,0.76 0 0 1 -0.7,0.51 l -5.73,0.1 a 0.76,0.76 0 0 0 -0.44,1.36 l 4.57,3.45 a 0.76,0.76 0 0 1 0.27,0.83 l -1.68,5.47 a 0.76,0.76 0 0 0 1.17,0.84 l 4.68,-3.28 a 0.76,0.76 0 0 1 0.88,0 l 4.68,3.28 a 0.76,0.76 0 0 0 1.17,-0.84 l -1.68,-5.47 a 0.76,0.76 0 0 1 0.27,-0.83 l 4.57,-3.45 a 0.76,0.76 0 0 0 -0.44,-1.36 l -5.73,-0.1"
       id="path45" />
    <path
       stroke="#9b9ec8"
       vector-effect="non-scaling-stroke"
       d="m 74.87,237.04 a 0.77,0.77 0 0 1 -0.72,-0.52 l -1.84,-5.38 a 0.77,0.77 0 0 0 -1.46,0 l -1.84,5.38 a 0.77,0.77 0 0 1 -0.72,0.52 l -5.68,0.09 a 0.77,0.77 0 0 0 -0.45,1.38 l 4.55,3.42 a 0.77,0.77 0 0 1 0.27,0.84 l -1.67,5.44 a 0.77,0.77 0 0 0 1.17,0.85 l 4.66,-3.27 a 0.77,0.77 0 0 1 0.88,0 l 4.66,3.27 a 0.77,0.77 0 0 0 1.17,-0.85 l -1.67,-5.44 a 0.77,0.77 0 0 1 0.27,-0.84 L 81,238.51 a 0.77,0.77 0 0 0 -0.45,-1.38 l -5.68,-0.09"
       id="path46" />
    <path
       stroke="#9b9ec8"
       vector-effect="non-scaling-stroke"
       d="m 122.46,237.04 a 0.76,0.76 0 0 1 -0.7,-0.51 l -1.86,-5.41 a 0.76,0.76 0 0 0 -1.44,0 l -1.86,5.41 a 0.76,0.76 0 0 1 -0.7,0.51 l -5.72,0.1 a 0.76,0.76 0 0 0 -0.45,1.37 l 4.57,3.44 a 0.76,0.76 0 0 1 0.27,0.83 l -1.67,5.46 a 0.76,0.76 0 0 0 1.16,0.85 l 4.68,-3.28 a 0.76,0.76 0 0 1 0.88,0 l 4.68,3.28 a 0.76,0.76 0 0 0 1.16,-0.85 l -1.67,-5.46 a 0.76,0.76 0 0 1 0.27,-0.83 l 4.57,-3.44 a 0.76,0.76 0 0 0 -0.45,-1.37 l -5.72,-0.1"
       id="path47" />
    <path
       stroke="#9b9ec8"
       vector-effect="non-scaling-stroke"
       d="m 170.05,237.06 a 0.77,0.77 0 0 1 -0.72,-0.52 l -1.83,-5.4 a 0.77,0.77 0 0 0 -1.46,0 l -1.83,5.4 a 0.77,0.77 0 0 1 -0.72,0.52 l -5.7,0.07 a 0.77,0.77 0 0 0 -0.46,1.39 l 4.58,3.41 a 0.77,0.77 0 0 1 0.28,0.85 l -1.7,5.45 a 0.77,0.77 0 0 0 1.18,0.85 l 4.65,-3.29 a 0.77,0.77 0 0 1 0.9,0 l 4.65,3.29 a 0.77,0.77 0 0 0 1.18,-0.85 l -1.7,-5.45 a 0.77,0.77 0 0 1 0.28,-0.85 l 4.58,-3.41 a 0.77,0.77 0 0 0 -0.46,-1.39 l -5.7,-0.07"
       id="path48" />
    <path
       stroke="#9b9ec8"
       vector-effect="non-scaling-stroke"
       d="m 217.63,237.05 a 0.77,0.77 0 0 1 -0.72,-0.52 l -1.84,-5.39 a 0.77,0.77 0 0 0 -1.46,0 l -1.84,5.39 a 0.77,0.77 0 0 1 -0.72,0.52 l -5.69,0.09 a 0.77,0.77 0 0 0 -0.45,1.38 l 4.56,3.42 a 0.77,0.77 0 0 1 0.27,0.84 l -1.68,5.44 a 0.77,0.77 0 0 0 1.18,0.86 l 4.66,-3.28 a 0.77,0.77 0 0 1 0.88,0 l 4.66,3.28 a 0.77,0.77 0 0 0 1.18,-0.86 l -1.68,-5.44 a 0.77,0.77 0 0 1 0.27,-0.84 l 4.56,-3.42 a 0.77,0.77 0 0 0 -0.45,-1.38 l -5.69,-0.09"
       id="path49" />
    <path
       stroke="#faa0a5"
       vector-effect="non-scaling-stroke"
       d="m 509.91,114.03 -271.52,0.01"
       id="path50" />
    <path
       stroke="#faa0a5"
       vector-effect="non-scaling-stroke"
       d="M 512,139.85 H 238.36"
       id="path51" />
    <path
       stroke="#faa0a5"
       vector-effect="non-scaling-stroke"
       d="M 512,165.7 H 238.39"
       id="path52" />
    <path
       stroke="#faa0a5"
       vector-effect="non-scaling-stroke"
       d="M 512,191.5 H 238.42"
       id="path53" />
    <path
       stroke="#faa0a5"
       vector-effect="non-scaling-stroke"
       d="M 512,217.27 H 238.41"
       id="path54" />
    <path
       stroke="#faa0a5"
       vector-effect="non-scaling-stroke"
       d="m 512,243.03 -273.59,0.01"
       id="path55" />
    <path
       stroke="#faa0a5"
       vector-effect="non-scaling-stroke"
       d="M 512,268.95 232.19,268.94"
       id="path56" />
    <path
       stroke="#faa0a5"
       vector-effect="non-scaling-stroke"
       d="M 512,294.74 0,294.73"
       id="path57" />
    <path
       stroke="#faa0a5"
       vector-effect="non-scaling-stroke"
       d="M 512,320.5 H 0"
       id="path58" />
    <path
       stroke="#faa0a5"
       vector-effect="non-scaling-stroke"
       d="M 512,346.29 H 0"
       id="path59" />
    <path
       stroke="#faa0a5"
       vector-effect="non-scaling-stroke"
       d="M 512,372.13 H 0"
       id="path60" />
    <path
       stroke="#faa0a5"
       vector-effect="non-scaling-stroke"
       d="M 509.91,397.96 H 2.1"
       id="path61" />
  </g>
  <path
     fill="#41479b"
     d="m 230.9,0.94678041 q 7.53,2.55999999 7.44,9.18999959 -0.1,8.36 0.05,16.79 l -0.03,25.81 0.03,25.85 0.03,25.8 -0.01,25.77 v 25.77 q -0.09,7.61 -0.14,14.94 -0.03,4.42 -1.13,6.33 -1.53,2.67 -4.95,4.63 -1.53,-0.17 -3.44,-0.17 -108.5,0.22 -217.02,0.22 -4.85,0 -6.81,-0.94 -3.23,-1.57 -4.92,-5.48 v -141.05 Q 4.6,9.6167804 28.5,2.1167804 q 3.01,-0.94 9.5,-0.96 96.53,-0.30999999 192.9,-0.20999999 z M 27.28,27.30678 a 0.75,0.75 0 0 1 -0.69,-0.5 l -1.87,-5.38 a 0.75,0.75 0 0 0 -1.42,0 l -1.87,5.38 a 0.75,0.75 0 0 1 -0.69,0.5 l -5.7,0.12 a 0.75,0.75 0 0 0 -0.44,1.35 l 4.54,3.44 a 0.75,0.75 0 0 1 0.27,0.82 l -1.65,5.45 a 0.75,0.75 0 0 0 1.14,0.83 l 4.68,-3.25 a 0.75,0.75 0 0 1 0.86,0 l 4.68,3.25 a 0.75,0.75 0 0 0 1.14,-0.83 l -1.65,-5.45 a 0.75,0.75 0 0 1 0.27,-0.82 l 4.54,-3.44 a 0.75,0.75 0 0 0 -0.44,-1.35 z m 47.58,0 a 0.75,0.75 0 0 1 -0.69,-0.51 l -1.88,-5.38 a 0.75,0.75 0 0 0 -1.42,0 l -1.88,5.38 a 0.75,0.75 0 0 1 -0.69,0.51 l -5.7,0.12 a 0.75,0.75 0 0 0 -0.43,1.35 l 4.53,3.44 a 0.75,0.75 0 0 1 0.27,0.82 l -1.65,5.46 a 0.75,0.75 0 0 0 1.15,0.83 l 4.68,-3.25 a 0.75,0.75 0 0 1 0.86,0 l 4.68,3.25 a 0.75,0.75 0 0 0 1.15,-0.83 l -1.65,-5.46 a 0.75,0.75 0 0 1 0.27,-0.82 l 4.53,-3.44 a 0.75,0.75 0 0 0 -0.43,-1.35 z m 47.58,-0.02 a 0.73,0.73 0 0 1 -0.67,-0.48 l -1.91,-5.41 a 0.73,0.73 0 0 0 -1.38,0 l -1.91,5.41 a 0.73,0.73 0 0 1 -0.67,0.48 l -5.73,0.15 a 0.73,0.73 0 0 0 -0.42,1.31 l 4.54,3.49 a 0.73,0.73 0 0 1 0.26,0.79 l -1.63,5.49 a 0.73,0.73 0 0 0 1.11,0.81 l 4.73,-3.25 a 0.73,0.73 0 0 1 0.82,0 l 4.73,3.25 a 0.73,0.73 0 0 0 1.11,-0.81 l -1.63,-5.49 a 0.73,0.73 0 0 1 0.26,-0.79 l 4.54,-3.49 a 0.73,0.73 0 0 0 -0.42,-1.31 z m 47.6,0.02 a 0.75,0.75 0 0 1 -0.69,-0.5 l -1.87,-5.39 a 0.75,0.75 0 0 0 -1.42,0 l -1.87,5.39 a 0.75,0.75 0 0 1 -0.69,0.5 l -5.71,0.12 a 0.75,0.75 0 0 0 -0.43,1.35 l 4.54,3.44 a 0.75,0.75 0 0 1 0.27,0.82 l -1.66,5.46 a 0.75,0.75 0 0 0 1.15,0.83 l 4.68,-3.26 a 0.75,0.75 0 0 1 0.86,0 l 4.68,3.26 a 0.75,0.75 0 0 0 1.15,-0.83 l -1.66,-5.46 a 0.75,0.75 0 0 1 0.27,-0.82 l 4.54,-3.44 a 0.75,0.75 0 0 0 -0.43,-1.35 z m 47.58,-0.01 a 0.75,0.75 0 0 1 -0.69,-0.5 l -1.88,-5.36 a 0.75,0.75 0 0 0 -1.42,0 l -1.88,5.36 a 0.75,0.75 0 0 1 -0.69,0.5 l -5.68,0.13 a 0.75,0.75 0 0 0 -0.44,1.35 l 4.52,3.45 a 0.75,0.75 0 0 1 0.26,0.81 l -1.63,5.44 a 0.75,0.75 0 0 0 1.15,0.84 l 4.67,-3.24 a 0.75,0.75 0 0 1 0.86,0 l 4.67,3.24 a 0.75,0.75 0 0 0 1.15,-0.84 l -1.63,-5.44 a 0.75,0.75 0 0 1 0.26,-0.81 l 4.52,-3.45 a 0.75,0.75 0 0 0 -0.44,-1.35 z m -166.56,15.06 a 0.75,0.75 0 0 1 -0.7,-0.5 l -1.86,-5.41 a 0.75,0.75 0 0 0 -1.42,0 l -1.86,5.41 a 0.75,0.75 0 0 1 -0.7,0.5 l -5.72,0.1 a 0.75,0.75 0 0 0 -0.44,1.35 l 4.57,3.45 a 0.75,0.75 0 0 1 0.27,0.81 l -1.68,5.48 a 0.75,0.75 0 0 0 1.15,0.83 l 4.69,-3.28 a 0.75,0.75 0 0 1 0.86,0 l 4.69,3.28 a 0.75,0.75 0 0 0 1.15,-0.83 l -1.68,-5.48 a 0.75,0.75 0 0 1 0.27,-0.81 l 4.57,-3.45 a 0.75,0.75 0 0 0 -0.44,-1.35 z m 47.61,0 a 0.77,0.77 0 0 1 -0.72,-0.52 l -1.84,-5.38 a 0.77,0.77 0 0 0 -1.46,0 l -1.84,5.38 a 0.77,0.77 0 0 1 -0.72,0.52 l -5.68,0.09 a 0.77,0.77 0 0 0 -0.45,1.38 l 4.55,3.42 a 0.77,0.77 0 0 1 0.27,0.84 l -1.67,5.44 a 0.77,0.77 0 0 0 1.17,0.85 l 4.66,-3.27 a 0.77,0.77 0 0 1 0.88,0 l 4.66,3.27 a 0.77,0.77 0 0 0 1.17,-0.85 l -1.67,-5.44 a 0.77,0.77 0 0 1 0.27,-0.84 l 4.55,-3.42 a 0.77,0.77 0 0 0 -0.45,-1.38 z m 47.57,-0.02 a 0.75,0.75 0 0 1 -0.69,-0.5 l -1.87,-5.39 a 0.75,0.75 0 0 0 -1.42,0 l -1.87,5.39 a 0.75,0.75 0 0 1 -0.69,0.5 l -5.71,0.12 a 0.75,0.75 0 0 0 -0.43,1.35 l 4.54,3.44 a 0.75,0.75 0 0 1 0.27,0.82 l -1.66,5.46 a 0.75,0.75 0 0 0 1.15,0.83 l 4.68,-3.26 a 0.75,0.75 0 0 1 0.86,0 l 4.68,3.26 a 0.75,0.75 0 0 0 1.15,-0.83 l -1.66,-5.46 a 0.75,0.75 0 0 1 0.27,-0.82 l 4.54,-3.44 a 0.75,0.75 0 0 0 -0.43,-1.35 z m 47.58,0 a 0.75,0.75 0 0 1 -0.69,-0.5 l -1.87,-5.4 a 0.75,0.75 0 0 0 -1.42,0 l -1.87,5.4 a 0.75,0.75 0 0 1 -0.69,0.5 l -5.71,0.12 a 0.75,0.75 0 0 0 -0.44,1.34 l 4.55,3.45 a 0.75,0.75 0 0 1 0.27,0.82 l -1.66,5.46 a 0.75,0.75 0 0 0 1.15,0.83 l 4.68,-3.26 a 0.75,0.75 0 0 1 0.86,0 l 4.68,3.26 a 0.75,0.75 0 0 0 1.15,-0.83 l -1.66,-5.46 a 0.75,0.75 0 0 1 0.27,-0.82 l 4.55,-3.45 a 0.75,0.75 0 0 0 -0.44,-1.34 z m -166.54,15.62 a 0.75,0.75 0 0 1 -0.69,-0.51 l -1.88,-5.39 a 0.75,0.75 0 0 0 -1.42,0 l -1.88,5.39 a 0.75,0.75 0 0 1 -0.69,0.51 l -5.71,0.11 a 0.75,0.75 0 0 0 -0.44,1.35 l 4.55,3.45 a 0.75,0.75 0 0 1 0.27,0.82 l -1.65,5.47 a 0.75,0.75 0 0 0 1.14,0.83 l 4.69,-3.26 a 0.75,0.75 0 0 1 0.86,0 l 4.69,3.26 a 0.75,0.75 0 0 0 1.14,-0.83 l -1.65,-5.47 a 0.75,0.75 0 0 1 0.27,-0.82 l 4.55,-3.45 a 0.75,0.75 0 0 0 -0.44,-1.35 z m 47.59,0 a 0.77,0.77 0 0 1 -0.71,-0.52 l -1.85,-5.38 a 0.77,0.77 0 0 0 -1.46,0 l -1.85,5.38 a 0.77,0.77 0 0 1 -0.71,0.52 l -5.69,0.1 a 0.77,0.77 0 0 0 -0.45,1.38 l 4.55,3.42 a 0.77,0.77 0 0 1 0.27,0.84 l -1.67,5.44 a 0.77,0.77 0 0 0 1.18,0.86 l 4.66,-3.27 a 0.77,0.77 0 0 1 0.88,0 l 4.66,3.27 a 0.77,0.77 0 0 0 1.18,-0.86 l -1.67,-5.44 a 0.77,0.77 0 0 1 0.27,-0.84 l 4.55,-3.42 a 0.77,0.77 0 0 0 -0.45,-1.38 z m 47.59,0 a 0.75,0.75 0 0 1 -0.69,-0.51 l -1.88,-5.39 a 0.75,0.75 0 0 0 -1.42,0 l -1.88,5.39 a 0.75,0.75 0 0 1 -0.69,0.51 l -5.71,0.11 a 0.75,0.75 0 0 0 -0.44,1.35 l 4.55,3.45 a 0.75,0.75 0 0 1 0.27,0.82 l -1.65,5.47 a 0.75,0.75 0 0 0 1.14,0.83 l 4.69,-3.26 a 0.75,0.75 0 0 1 0.86,0 l 4.69,3.26 a 0.75,0.75 0 0 0 1.14,-0.83 l -1.65,-5.47 a 0.75,0.75 0 0 1 0.27,-0.82 l 4.55,-3.45 a 0.75,0.75 0 0 0 -0.44,-1.35 z m 47.59,0 a 0.77,0.77 0 0 1 -0.71,-0.52 l -1.85,-5.37 a 0.77,0.77 0 0 0 -1.46,0 l -1.85,5.37 a 0.77,0.77 0 0 1 -0.71,0.52 l -5.68,0.1 a 0.77,0.77 0 0 0 -0.45,1.38 l 4.54,3.42 a 0.77,0.77 0 0 1 0.27,0.84 l -1.66,5.44 a 0.77,0.77 0 0 0 1.17,0.85 l 4.66,-3.26 a 0.77,0.77 0 0 1 0.88,0 l 4.66,3.26 a 0.77,0.77 0 0 0 1.17,-0.85 l -1.66,-5.44 a 0.77,0.77 0 0 1 0.27,-0.84 l 4.54,-3.42 a 0.77,0.77 0 0 0 -0.45,-1.38 z m 47.58,0 a 0.77,0.77 0 0 1 -0.71,-0.52 l -1.85,-5.38 a 0.77,0.77 0 0 0 -1.46,0 l -1.85,5.38 a 0.77,0.77 0 0 1 -0.71,0.52 l -5.69,0.1 a 0.77,0.77 0 0 0 -0.45,1.38 l 4.55,3.42 a 0.77,0.77 0 0 1 0.27,0.84 l -1.67,5.44 a 0.77,0.77 0 0 0 1.18,0.86 l 4.66,-3.27 a 0.77,0.77 0 0 1 0.88,0 l 4.66,3.27 a 0.77,0.77 0 0 0 1.18,-0.86 l -1.67,-5.44 a 0.77,0.77 0 0 1 0.27,-0.84 l 4.55,-3.42 a 0.77,0.77 0 0 0 -0.45,-1.38 z m -166.57,15.03 a 0.74,0.74 0 0 1 -0.68,-0.5 l -1.89,-5.41 a 0.74,0.74 0 0 0 -1.4,0 l -1.89,5.41 a 0.74,0.74 0 0 1 -0.68,0.5 l -5.73,0.12 a 0.74,0.74 0 0 0 -0.43,1.33 l 4.56,3.47 a 0.74,0.74 0 0 1 0.26,0.8 l -1.65,5.49 a 0.74,0.74 0 0 0 1.13,0.82 l 4.71,-3.27 a 0.74,0.74 0 0 1 0.84,0 l 4.71,3.27 a 0.74,0.74 0 0 0 1.13,-0.82 l -1.65,-5.49 a 0.74,0.74 0 0 1 0.26,-0.8 l 4.56,-3.47 a 0.74,0.74 0 0 0 -0.43,-1.33 z m 47.62,0.03 a 0.77,0.77 0 0 1 -0.72,-0.52 l -1.84,-5.4 a 0.77,0.77 0 0 0 -1.46,0 l -1.84,5.4 a 0.77,0.77 0 0 1 -0.72,0.52 l -5.7,0.08 a 0.77,0.77 0 0 0 -0.45,1.39 l 4.56,3.42 a 0.77,0.77 0 0 1 0.28,0.84 l -1.68,5.45 a 0.77,0.77 0 0 0 1.18,0.85 l 4.66,-3.28 a 0.77,0.77 0 0 1 0.88,0 l 4.66,3.28 a 0.77,0.77 0 0 0 1.18,-0.85 l -1.68,-5.45 a 0.77,0.77 0 0 1 0.28,-0.84 l 4.56,-3.42 a 0.77,0.77 0 0 0 -0.45,-1.39 z m 47.57,-0.02 a 0.75,0.75 0 0 1 -0.69,-0.5 l -1.87,-5.39 a 0.75,0.75 0 0 0 -1.42,0 l -1.87,5.39 a 0.75,0.75 0 0 1 -0.69,0.5 l -5.71,0.12 a 0.75,0.75 0 0 0 -0.43,1.35 l 4.54,3.44 a 0.75,0.75 0 0 1 0.27,0.82 l -1.66,5.46 a 0.75,0.75 0 0 0 1.15,0.83 l 4.68,-3.26 a 0.75,0.75 0 0 1 0.86,0 l 4.68,3.26 a 0.75,0.75 0 0 0 1.15,-0.83 l -1.66,-5.46 a 0.75,0.75 0 0 1 0.27,-0.82 l 4.54,-3.44 a 0.75,0.75 0 0 0 -0.43,-1.35 z m 47.57,0.03 a 0.76,0.76 0 0 1 -0.7,-0.52 l -1.85,-5.4 a 0.76,0.76 0 0 0 -1.44,0 l -1.85,5.4 a 0.76,0.76 0 0 1 -0.7,0.52 l -5.72,0.08 a 0.76,0.76 0 0 0 -0.44,1.37 l 4.57,3.43 a 0.76,0.76 0 0 1 0.27,0.83 l -1.68,5.46 a 0.76,0.76 0 0 0 1.16,0.85 l 4.67,-3.29 a 0.76,0.76 0 0 1 0.88,0 l 4.67,3.29 a 0.76,0.76 0 0 0 1.16,-0.85 l -1.68,-5.46 a 0.76,0.76 0 0 1 0.27,-0.83 l 4.57,-3.43 a 0.76,0.76 0 0 0 -0.44,-1.37 z m -166.55,15.58 a 0.75,0.75 0 0 1 -0.69,-0.5 l -1.87,-5.4 a 0.75,0.75 0 0 0 -1.42,0 l -1.87,5.4 a 0.75,0.75 0 0 1 -0.69,0.5 l -5.71,0.12 a 0.75,0.75 0 0 0 -0.44,1.34 l 4.55,3.45 a 0.75,0.75 0 0 1 0.27,0.82 l -1.66,5.46 a 0.75,0.75 0 0 0 1.15,0.83 l 4.68,-3.26 a 0.75,0.75 0 0 1 0.86,0 l 4.68,3.26 a 0.75,0.75 0 0 0 1.15,-0.83 l -1.66,-5.46 a 0.75,0.75 0 0 1 0.27,-0.82 l 4.55,-3.45 a 0.75,0.75 0 0 0 -0.44,-1.34 z m 47.58,0 a 0.75,0.75 0 0 1 -0.69,-0.5 l -1.87,-5.39 a 0.75,0.75 0 0 0 -1.42,0 l -1.87,5.39 a 0.75,0.75 0 0 1 -0.69,0.5 l -5.71,0.12 a 0.75,0.75 0 0 0 -0.43,1.35 l 4.54,3.44 a 0.75,0.75 0 0 1 0.27,0.82 l -1.66,5.46 a 0.75,0.75 0 0 0 1.15,0.83 l 4.68,-3.26 a 0.75,0.75 0 0 1 0.86,0 l 4.68,3.26 a 0.75,0.75 0 0 0 1.15,-0.83 l -1.66,-5.46 a 0.75,0.75 0 0 1 0.27,-0.82 l 4.54,-3.44 a 0.75,0.75 0 0 0 -0.43,-1.35 z m 47.6,0.02 a 0.75,0.75 0 0 1 -0.7,-0.5 l -1.86,-5.41 a 0.75,0.75 0 0 0 -1.42,0 l -1.86,5.41 a 0.75,0.75 0 0 1 -0.7,0.5 l -5.72,0.1 a 0.75,0.75 0 0 0 -0.44,1.35 l 4.57,3.45 a 0.75,0.75 0 0 1 0.27,0.81 l -1.68,5.48 a 0.75,0.75 0 0 0 1.15,0.83 l 4.69,-3.28 a 0.75,0.75 0 0 1 0.86,0 l 4.69,3.28 a 0.75,0.75 0 0 0 1.15,-0.83 l -1.68,-5.48 a 0.75,0.75 0 0 1 0.27,-0.81 l 4.57,-3.45 a 0.75,0.75 0 0 0 -0.44,-1.35 z m 47.58,0 a 0.75,0.75 0 0 1 -0.7,-0.5 l -1.86,-5.42 a 0.75,0.75 0 0 0 -1.42,0 l -1.86,5.42 a 0.75,0.75 0 0 1 -0.7,0.5 l -5.73,0.1 a 0.75,0.75 0 0 0 -0.44,1.35 l 4.58,3.45 a 0.75,0.75 0 0 1 0.27,0.82 l -1.68,5.47 a 0.75,0.75 0 0 0 1.15,0.84 l 4.69,-3.29 a 0.75,0.75 0 0 1 0.86,0 l 4.69,3.29 a 0.75,0.75 0 0 0 1.15,-0.84 l -1.68,-5.47 a 0.75,0.75 0 0 1 0.27,-0.82 l 4.58,-3.45 a 0.75,0.75 0 0 0 -0.44,-1.35 z m 47.6,0 a 0.76,0.76 0 0 1 -0.71,-0.51 l -1.85,-5.38 a 0.76,0.76 0 0 0 -1.44,0 l -1.85,5.38 a 0.76,0.76 0 0 1 -0.71,0.51 l -5.69,0.1 a 0.76,0.76 0 0 0 -0.44,1.37 l 4.54,3.42 a 0.76,0.76 0 0 1 0.27,0.83 l -1.66,5.45 a 0.76,0.76 0 0 0 1.16,0.84 l 4.66,-3.26 a 0.76,0.76 0 0 1 0.88,0 l 4.66,3.26 a 0.76,0.76 0 0 0 1.16,-0.84 l -1.66,-5.45 a 0.76,0.76 0 0 1 0.27,-0.83 l 4.54,-3.42 a 0.76,0.76 0 0 0 -0.44,-1.37 z m -166.57,15.01 a 0.75,0.75 0 0 1 -0.69,-0.5 l -1.87,-5.4 a 0.75,0.75 0 0 0 -1.42,0 l -1.87,5.4 a 0.75,0.75 0 0 1 -0.69,0.5 l -5.71,0.12 a 0.75,0.75 0 0 0 -0.44,1.34 l 4.55,3.45 a 0.75,0.75 0 0 1 0.27,0.82 l -1.66,5.46 a 0.75,0.75 0 0 0 1.15,0.83 l 4.68,-3.26 a 0.75,0.75 0 0 1 0.86,0 l 4.68,3.26 a 0.75,0.75 0 0 0 1.15,-0.83 l -1.66,-5.46 a 0.75,0.75 0 0 1 0.27,-0.82 l 4.55,-3.45 a 0.75,0.75 0 0 0 -0.44,-1.34 z m 47.61,0.02 a 0.77,0.77 0 0 1 -0.72,-0.52 l -1.84,-5.4 a 0.77,0.77 0 0 0 -1.46,0 l -1.84,5.4 a 0.77,0.77 0 0 1 -0.72,0.52 l -5.7,0.08 a 0.77,0.77 0 0 0 -0.45,1.39 l 4.56,3.42 a 0.77,0.77 0 0 1 0.28,0.84 l -1.68,5.45 a 0.77,0.77 0 0 0 1.18,0.85 l 4.66,-3.28 a 0.77,0.77 0 0 1 0.88,0 l 4.66,3.28 a 0.77,0.77 0 0 0 1.18,-0.85 l -1.68,-5.45 a 0.77,0.77 0 0 1 0.28,-0.84 l 4.56,-3.42 a 0.77,0.77 0 0 0 -0.45,-1.39 z m 47.58,-0.02 a 0.75,0.75 0 0 1 -0.69,-0.51 l -1.88,-5.39 a 0.75,0.75 0 0 0 -1.42,0 l -1.88,5.39 a 0.75,0.75 0 0 1 -0.69,0.51 l -5.7,0.12 a 0.75,0.75 0 0 0 -0.44,1.34 l 4.54,3.45 a 0.75,0.75 0 0 1 0.27,0.82 l -1.65,5.46 a 0.75,0.75 0 0 0 1.15,0.83 l 4.68,-3.25 a 0.75,0.75 0 0 1 0.86,0 l 4.68,3.25 a 0.75,0.75 0 0 0 1.15,-0.83 l -1.65,-5.46 a 0.75,0.75 0 0 1 0.27,-0.82 l 4.54,-3.45 a 0.75,0.75 0 0 0 -0.44,-1.34 z m 47.58,0.03 a 0.77,0.77 0 0 1 -0.72,-0.53 l -1.83,-5.41 a 0.77,0.77 0 0 0 -1.46,0 l -1.83,5.41 a 0.77,0.77 0 0 1 -0.72,0.53 l -5.72,0.07 a 0.77,0.77 0 0 0 -0.45,1.39 l 4.58,3.41 a 0.77,0.77 0 0 1 0.28,0.85 l -1.7,5.46 a 0.77,0.77 0 0 0 1.18,0.86 l 4.67,-3.31 a 0.77,0.77 0 0 1 0.88,0 l 4.67,3.31 a 0.77,0.77 0 0 0 1.18,-0.86 l -1.7,-5.46 a 0.77,0.77 0 0 1 0.28,-0.85 l 4.58,-3.41 a 0.77,0.77 0 0 0 -0.45,-1.39 z m -166.54,15.65 a 0.77,0.77 0 0 1 -0.73,-0.52 l -1.82,-5.43 a 0.77,0.77 0 0 0 -1.46,0 l -1.82,5.43 a 0.77,0.77 0 0 1 -0.73,0.52 l -5.72,0.06 a 0.77,0.77 0 0 0 -0.45,1.39 l 4.6,3.41 a 0.77,0.77 0 0 1 0.27,0.85 l -1.71,5.46 a 0.77,0.77 0 0 0 1.18,0.85 l 4.66,-3.31 a 0.77,0.77 0 0 1 0.9,0 l 4.66,3.31 a 0.77,0.77 0 0 0 1.18,-0.85 l -1.71,-5.46 a 0.77,0.77 0 0 1 0.27,-0.85 l 4.6,-3.41 a 0.77,0.77 0 0 0 -0.45,-1.39 z m 47.57,-0.04 a 0.75,0.75 0 0 1 -0.69,-0.51 l -1.88,-5.37 a 0.75,0.75 0 0 0 -1.42,0 l -1.88,5.37 a 0.75,0.75 0 0 1 -0.69,0.51 l -5.69,0.12 a 0.75,0.75 0 0 0 -0.44,1.35 l 4.54,3.44 a 0.75,0.75 0 0 1 0.26,0.82 l -1.64,5.45 a 0.75,0.75 0 0 0 1.14,0.83 l 4.68,-3.24 a 0.75,0.75 0 0 1 0.86,0 l 4.68,3.24 a 0.75,0.75 0 0 0 1.14,-0.83 l -1.64,-5.45 a 0.75,0.75 0 0 1 0.26,-0.82 l 4.54,-3.44 a 0.75,0.75 0 0 0 -0.44,-1.35 z m 47.58,0 a 0.74,0.74 0 0 1 -0.68,-0.5 l -1.89,-5.38 a 0.74,0.74 0 0 0 -1.4,0 l -1.89,5.38 a 0.74,0.74 0 0 1 -0.68,0.5 l -5.7,0.13 a 0.74,0.74 0 0 0 -0.43,1.33 l 4.53,3.46 a 0.74,0.74 0 0 1 0.26,0.8 l -1.63,5.46 a 0.74,0.74 0 0 0 1.13,0.83 l 4.69,-3.25 a 0.74,0.74 0 0 1 0.84,0 l 4.69,3.25 a 0.74,0.74 0 0 0 1.13,-0.83 l -1.63,-5.46 a 0.74,0.74 0 0 1 0.26,-0.8 l 4.53,-3.46 a 0.74,0.74 0 0 0 -0.43,-1.33 z m 47.61,0 a 0.75,0.75 0 0 1 -0.69,-0.51 l -1.88,-5.37 a 0.75,0.75 0 0 0 -1.42,0 l -1.88,5.37 a 0.75,0.75 0 0 1 -0.69,0.51 l -5.69,0.12 a 0.75,0.75 0 0 0 -0.44,1.35 l 4.54,3.44 a 0.75,0.75 0 0 1 0.26,0.82 l -1.64,5.45 a 0.75,0.75 0 0 0 1.14,0.83 l 4.68,-3.24 a 0.75,0.75 0 0 1 0.86,0 l 4.68,3.24 a 0.75,0.75 0 0 0 1.14,-0.83 l -1.64,-5.45 a 0.75,0.75 0 0 1 0.26,-0.82 l 4.54,-3.44 a 0.75,0.75 0 0 0 -0.44,-1.35 z m 47.57,0 a 0.75,0.75 0 0 1 -0.69,-0.5 l -1.88,-5.37 a 0.75,0.75 0 0 0 -1.42,0 l -1.88,5.37 a 0.75,0.75 0 0 1 -0.69,0.5 l -5.68,0.13 a 0.75,0.75 0 0 0 -0.43,1.34 l 4.52,3.44 a 0.75,0.75 0 0 1 0.26,0.82 l -1.63,5.44 a 0.75,0.75 0 0 0 1.14,0.83 l 4.67,-3.23 a 0.75,0.75 0 0 1 0.86,0 l 4.67,3.23 a 0.75,0.75 0 0 0 1.14,-0.83 l -1.63,-5.44 a 0.75,0.75 0 0 1 0.26,-0.82 l 4.52,-3.44 a 0.75,0.75 0 0 0 -0.43,-1.34 z m -166.55,15.03 a 0.75,0.75 0 0 1 -0.69,-0.51 l -1.88,-5.39 a 0.75,0.75 0 0 0 -1.42,0 l -1.88,5.39 a 0.75,0.75 0 0 1 -0.69,0.51 l -5.71,0.11 a 0.75,0.75 0 0 0 -0.44,1.35 l 4.55,3.45 a 0.75,0.75 0 0 1 0.27,0.82 l -1.65,5.47 a 0.75,0.75 0 0 0 1.14,0.83 l 4.69,-3.26 a 0.75,0.75 0 0 1 0.86,0 l 4.69,3.26 a 0.75,0.75 0 0 0 1.14,-0.83 l -1.65,-5.47 a 0.75,0.75 0 0 1 0.27,-0.82 l 4.55,-3.45 a 0.75,0.75 0 0 0 -0.44,-1.35 z m 47.59,0.01 a 0.76,0.76 0 0 1 -0.71,-0.51 l -1.85,-5.38 a 0.76,0.76 0 0 0 -1.44,0 l -1.85,5.38 a 0.76,0.76 0 0 1 -0.71,0.51 l -5.69,0.1 a 0.76,0.76 0 0 0 -0.44,1.37 l 4.54,3.42 a 0.76,0.76 0 0 1 0.27,0.83 l -1.66,5.45 a 0.76,0.76 0 0 0 1.16,0.84 l 4.66,-3.26 a 0.76,0.76 0 0 1 0.88,0 l 4.66,3.26 a 0.76,0.76 0 0 0 1.16,-0.84 l -1.66,-5.45 a 0.76,0.76 0 0 1 0.27,-0.83 l 4.54,-3.42 a 0.76,0.76 0 0 0 -0.44,-1.37 z m 47.58,-0.01 a 0.75,0.75 0 0 1 -0.69,-0.5 l -1.87,-5.4 a 0.75,0.75 0 0 0 -1.42,0 l -1.87,5.4 a 0.75,0.75 0 0 1 -0.69,0.5 l -5.72,0.11 a 0.75,0.75 0 0 0 -0.44,1.35 l 4.56,3.45 a 0.75,0.75 0 0 1 0.27,0.82 l -1.67,5.47 a 0.75,0.75 0 0 0 1.15,0.83 l 4.69,-3.27 a 0.75,0.75 0 0 1 0.86,0 l 4.69,3.27 a 0.75,0.75 0 0 0 1.15,-0.83 l -1.67,-5.47 a 0.75,0.75 0 0 1 0.27,-0.82 l 4.56,-3.45 a 0.75,0.75 0 0 0 -0.44,-1.35 z m 47.58,-0.01 a 0.75,0.75 0 0 1 -0.69,-0.5 l -1.87,-5.39 a 0.75,0.75 0 0 0 -1.42,0 l -1.87,5.39 a 0.75,0.75 0 0 1 -0.69,0.5 l -5.71,0.12 a 0.75,0.75 0 0 0 -0.43,1.35 l 4.54,3.44 a 0.75,0.75 0 0 1 0.27,0.82 l -1.66,5.46 a 0.75,0.75 0 0 0 1.15,0.83 l 4.68,-3.26 a 0.75,0.75 0 0 1 0.86,0 l 4.68,3.26 a 0.75,0.75 0 0 0 1.15,-0.83 l -1.66,-5.46 a 0.75,0.75 0 0 1 0.27,-0.82 l 4.54,-3.44 a 0.75,0.75 0 0 0 -0.43,-1.35 z m -166.54,15.64 a 0.76,0.76 0 0 1 -0.7,-0.51 l -1.86,-5.42 a 0.76,0.76 0 0 0 -1.44,0 l -1.86,5.42 a 0.76,0.76 0 0 1 -0.7,0.51 l -5.73,0.1 a 0.76,0.76 0 0 0 -0.44,1.36 l 4.57,3.45 a 0.76,0.76 0 0 1 0.27,0.83 l -1.68,5.47 a 0.76,0.76 0 0 0 1.17,0.84 l 4.68,-3.28 a 0.76,0.76 0 0 1 0.88,0 l 4.68,3.28 a 0.76,0.76 0 0 0 1.17,-0.84 l -1.68,-5.47 a 0.76,0.76 0 0 1 0.27,-0.83 l 4.57,-3.45 a 0.76,0.76 0 0 0 -0.44,-1.36 z m 47.59,-0.01 a 0.77,0.77 0 0 1 -0.72,-0.52 l -1.84,-5.38 a 0.77,0.77 0 0 0 -1.46,0 l -1.84,5.38 a 0.77,0.77 0 0 1 -0.72,0.52 l -5.68,0.09 a 0.77,0.77 0 0 0 -0.45,1.38 l 4.55,3.42 a 0.77,0.77 0 0 1 0.27,0.84 l -1.67,5.44 a 0.77,0.77 0 0 0 1.17,0.85 l 4.66,-3.27 a 0.77,0.77 0 0 1 0.88,0 l 4.66,3.27 a 0.77,0.77 0 0 0 1.17,-0.85 l -1.67,-5.44 a 0.77,0.77 0 0 1 0.27,-0.84 l 4.55,-3.42 a 0.77,0.77 0 0 0 -0.45,-1.38 z m 47.59,0 a 0.76,0.76 0 0 1 -0.7,-0.51 l -1.86,-5.41 a 0.76,0.76 0 0 0 -1.44,0 l -1.86,5.41 a 0.76,0.76 0 0 1 -0.7,0.51 l -5.72,0.1 a 0.76,0.76 0 0 0 -0.45,1.37 l 4.57,3.44 a 0.76,0.76 0 0 1 0.27,0.83 l -1.67,5.46 a 0.76,0.76 0 0 0 1.16,0.85 l 4.68,-3.28 a 0.76,0.76 0 0 1 0.88,0 l 4.68,3.28 a 0.76,0.76 0 0 0 1.16,-0.85 l -1.67,-5.46 a 0.76,0.76 0 0 1 0.27,-0.83 l 4.57,-3.44 a 0.76,0.76 0 0 0 -0.45,-1.37 z m 47.59,0.02 a 0.77,0.77 0 0 1 -0.72,-0.52 l -1.83,-5.4 a 0.77,0.77 0 0 0 -1.46,0 l -1.83,5.4 a 0.77,0.77 0 0 1 -0.72,0.52 l -5.7,0.07 a 0.77,0.77 0 0 0 -0.46,1.39 l 4.58,3.41 a 0.77,0.77 0 0 1 0.28,0.85 l -1.7,5.45 a 0.77,0.77 0 0 0 1.18,0.85 l 4.65,-3.29 a 0.77,0.77 0 0 1 0.9,0 l 4.65,3.29 a 0.77,0.77 0 0 0 1.18,-0.85 l -1.7,-5.45 a 0.77,0.77 0 0 1 0.28,-0.85 l 4.58,-3.41 a 0.77,0.77 0 0 0 -0.46,-1.39 z m 47.58,-0.01 a 0.77,0.77 0 0 1 -0.72,-0.52 l -1.84,-5.39 a 0.77,0.77 0 0 0 -1.46,0 l -1.84,5.39 a 0.77,0.77 0 0 1 -0.72,0.52 l -5.69,0.09 a 0.77,0.77 0 0 0 -0.45,1.38 l 4.56,3.42 a 0.77,0.77 0 0 1 0.27,0.84 l -1.68,5.44 a 0.77,0.77 0 0 0 1.18,0.86 l 4.66,-3.28 a 0.77,0.77 0 0 1 0.88,0 l 4.66,3.28 a 0.77,0.77 0 0 0 1.18,-0.86 l -1.68,-5.44 a 0.77,0.77 0 0 1 0.27,-0.84 l 4.56,-3.42 a 0.77,0.77 0 0 0 -0.45,-1.38 z"
     id="path62" />
  <path
     fill="#ff4b55"
     d="m 230.9,0.94678041 q 188.56,0.07 240.6,0.01 24.55,-0.03 36.39,20.84999959 0.97,1.72 2.02,5.11 l -271.52,0.01 q -0.15,-8.43 -0.05,-16.79 0.09,-6.6299996 -7.44,-9.18999959 z"
     id="path63" />
  <path
     fill="#f5f5f5"
     d="m 27.28,27.30678 5.7,0.12 a 0.75,0.75 0 0 1 0.44,1.35 l -4.54,3.44 a 0.75,0.75 0 0 0 -0.27,0.82 l 1.65,5.45 a 0.75,0.75 0 0 1 -1.14,0.83 l -4.68,-3.25 a 0.75,0.75 0 0 0 -0.86,0 l -4.68,3.25 a 0.75,0.75 0 0 1 -1.14,-0.83 l 1.65,-5.45 a 0.75,0.75 0 0 0 -0.27,-0.82 l -4.54,-3.44 a 0.75,0.75 0 0 1 0.44,-1.35 l 5.7,-0.12 a 0.75,0.75 0 0 0 0.69,-0.5 l 1.87,-5.38 a 0.75,0.75 0 0 1 1.42,0 l 1.87,5.38 a 0.75,0.75 0 0 0 0.69,0.5 z"
     id="path64" />
  <path
     fill="#f5f5f5"
     d="m 74.86,27.30678 5.7,0.12 a 0.75,0.75 0 0 1 0.43,1.35 l -4.53,3.44 a 0.75,0.75 0 0 0 -0.27,0.82 l 1.65,5.46 a 0.75,0.75 0 0 1 -1.15,0.83 l -4.68,-3.25 a 0.75,0.75 0 0 0 -0.86,0 l -4.68,3.25 a 0.75,0.75 0 0 1 -1.15,-0.83 l 1.65,-5.46 a 0.75,0.75 0 0 0 -0.27,-0.82 l -4.53,-3.44 a 0.75,0.75 0 0 1 0.43,-1.35 l 5.7,-0.12 a 0.75,0.75 0 0 0 0.69,-0.51 l 1.88,-5.38 a 0.75,0.75 0 0 1 1.42,0 l 1.88,5.38 a 0.75,0.75 0 0 0 0.69,0.51 z"
     id="path65" />
  <path
     fill="#f5f5f5"
     d="m 122.44,27.28678 5.73,0.15 a 0.73,0.73 0 0 1 0.42,1.31 l -4.54,3.49 a 0.73,0.73 0 0 0 -0.26,0.79 l 1.63,5.49 a 0.73,0.73 0 0 1 -1.11,0.81 l -4.73,-3.25 a 0.73,0.73 0 0 0 -0.82,0 l -4.73,3.25 a 0.73,0.73 0 0 1 -1.11,-0.81 l 1.63,-5.49 a 0.73,0.73 0 0 0 -0.26,-0.79 l -4.54,-3.49 a 0.73,0.73 0 0 1 0.42,-1.31 l 5.73,-0.15 a 0.73,0.73 0 0 0 0.67,-0.48 l 1.91,-5.41 a 0.73,0.73 0 0 1 1.38,0 l 1.91,5.41 a 0.73,0.73 0 0 0 0.67,0.48 z"
     id="path66" />
  <path
     fill="#f5f5f5"
     d="m 170.04,27.30678 5.71,0.12 a 0.75,0.75 0 0 1 0.43,1.35 l -4.54,3.44 a 0.75,0.75 0 0 0 -0.27,0.82 l 1.66,5.46 a 0.75,0.75 0 0 1 -1.15,0.83 l -4.68,-3.26 a 0.75,0.75 0 0 0 -0.86,0 l -4.68,3.26 a 0.75,0.75 0 0 1 -1.15,-0.83 l 1.66,-5.46 a 0.75,0.75 0 0 0 -0.27,-0.82 l -4.54,-3.44 a 0.75,0.75 0 0 1 0.43,-1.35 l 5.71,-0.12 a 0.75,0.75 0 0 0 0.69,-0.5 l 1.87,-5.39 a 0.75,0.75 0 0 1 1.42,0 l 1.87,5.39 a 0.75,0.75 0 0 0 0.69,0.5 z"
     id="path67" />
  <path
     fill="#f5f5f5"
     d="m 217.62,27.29678 5.68,0.13 a 0.75,0.75 0 0 1 0.44,1.35 l -4.52,3.45 a 0.75,0.75 0 0 0 -0.26,0.81 l 1.63,5.44 a 0.75,0.75 0 0 1 -1.15,0.84 l -4.67,-3.24 a 0.75,0.75 0 0 0 -0.86,0 l -4.67,3.24 a 0.75,0.75 0 0 1 -1.15,-0.84 l 1.63,-5.44 a 0.75,0.75 0 0 0 -0.26,-0.81 l -4.52,-3.45 a 0.75,0.75 0 0 1 0.44,-1.35 l 5.68,-0.13 a 0.75,0.75 0 0 0 0.69,-0.5 l 1.88,-5.36 a 0.75,0.75 0 0 1 1.42,0 l 1.88,5.36 a 0.75,0.75 0 0 0 0.69,0.5 z"
     id="path68" />
  <path
     fill="#f5f5f5"
     d="m 238.39,26.92678 271.52,-0.01 2.09,10.35 v 15.47 H 238.36 Z"
     id="path69" />
  <path
     fill="#f5f5f5"
     d="m 51.06,42.35678 5.72,0.1 a 0.75,0.75 0 0 1 0.44,1.35 l -4.57,3.45 a 0.75,0.75 0 0 0 -0.27,0.81 l 1.68,5.48 a 0.75,0.75 0 0 1 -1.15,0.83 l -4.69,-3.28 a 0.75,0.75 0 0 0 -0.86,0 l -4.69,3.28 a 0.75,0.75 0 0 1 -1.15,-0.83 l 1.68,-5.48 a 0.75,0.75 0 0 0 -0.27,-0.81 l -4.57,-3.45 a 0.75,0.75 0 0 1 0.44,-1.35 l 5.72,-0.1 a 0.75,0.75 0 0 0 0.7,-0.5 l 1.86,-5.41 a 0.75,0.75 0 0 1 1.42,0 l 1.86,5.41 a 0.75,0.75 0 0 0 0.7,0.5 z"
     id="path70" />
  <path
     fill="#f5f5f5"
     d="m 98.67,42.35678 5.68,0.09 a 0.77,0.77 0 0 1 0.45,1.38 l -4.55,3.42 a 0.77,0.77 0 0 0 -0.27,0.84 l 1.67,5.44 a 0.77,0.77 0 0 1 -1.17,0.85 l -4.66,-3.27 a 0.77,0.77 0 0 0 -0.88,0 l -4.66,3.27 a 0.77,0.77 0 0 1 -1.17,-0.85 l 1.67,-5.44 a 0.77,0.77 0 0 0 -0.27,-0.84 l -4.55,-3.42 a 0.77,0.77 0 0 1 0.45,-1.38 l 5.68,-0.09 a 0.77,0.77 0 0 0 0.72,-0.52 l 1.84,-5.38 a 0.77,0.77 0 0 1 1.46,0 l 1.84,5.38 a 0.77,0.77 0 0 0 0.72,0.52 z"
     id="path71" />
  <path
     fill="#f5f5f5"
     d="m 146.24,42.33678 5.71,0.12 a 0.75,0.75 0 0 1 0.43,1.35 l -4.54,3.44 a 0.75,0.75 0 0 0 -0.27,0.82 l 1.66,5.46 a 0.75,0.75 0 0 1 -1.15,0.83 l -4.68,-3.26 a 0.75,0.75 0 0 0 -0.86,0 l -4.68,3.26 a 0.75,0.75 0 0 1 -1.15,-0.83 l 1.66,-5.46 a 0.75,0.75 0 0 0 -0.27,-0.82 l -4.54,-3.44 a 0.75,0.75 0 0 1 0.43,-1.35 l 5.71,-0.12 a 0.75,0.75 0 0 0 0.69,-0.5 l 1.87,-5.39 a 0.75,0.75 0 0 1 1.42,0 l 1.87,5.39 a 0.75,0.75 0 0 0 0.69,0.5 z"
     id="path72" />
  <path
     fill="#f5f5f5"
     d="m 193.82,42.33678 5.71,0.12 a 0.75,0.75 0 0 1 0.44,1.34 l -4.55,3.45 a 0.75,0.75 0 0 0 -0.27,0.82 l 1.66,5.46 a 0.75,0.75 0 0 1 -1.15,0.83 l -4.68,-3.26 a 0.75,0.75 0 0 0 -0.86,0 l -4.68,3.26 a 0.75,0.75 0 0 1 -1.15,-0.83 l 1.66,-5.46 a 0.75,0.75 0 0 0 -0.27,-0.82 l -4.55,-3.45 a 0.75,0.75 0 0 1 0.44,-1.34 l 5.71,-0.12 a 0.75,0.75 0 0 0 0.69,-0.5 l 1.87,-5.4 a 0.75,0.75 0 0 1 1.42,0 l 1.87,5.4 a 0.75,0.75 0 0 0 0.69,0.5 z"
     id="path73" />
  <path
     fill="#f5f5f5"
     d="m 27.28,57.95678 5.71,0.11 a 0.75,0.75 0 0 1 0.44,1.35 l -4.55,3.45 a 0.75,0.75 0 0 0 -0.27,0.82 l 1.65,5.47 a 0.75,0.75 0 0 1 -1.14,0.83 l -4.69,-3.26 a 0.75,0.75 0 0 0 -0.86,0 l -4.69,3.26 a 0.75,0.75 0 0 1 -1.14,-0.83 l 1.65,-5.47 a 0.75,0.75 0 0 0 -0.27,-0.82 l -4.55,-3.45 a 0.75,0.75 0 0 1 0.44,-1.35 l 5.71,-0.11 a 0.75,0.75 0 0 0 0.69,-0.51 l 1.88,-5.39 a 0.75,0.75 0 0 1 1.42,0 l 1.88,5.39 a 0.75,0.75 0 0 0 0.69,0.51 z"
     id="path74" />
  <path
     fill="#f5f5f5"
     d="m 74.87,57.95678 5.69,0.1 a 0.77,0.77 0 0 1 0.45,1.38 l -4.55,3.42 a 0.77,0.77 0 0 0 -0.27,0.84 l 1.67,5.44 a 0.77,0.77 0 0 1 -1.18,0.86 l -4.66,-3.27 a 0.77,0.77 0 0 0 -0.88,0 l -4.66,3.27 a 0.77,0.77 0 0 1 -1.18,-0.86 l 1.67,-5.44 a 0.77,0.77 0 0 0 -0.27,-0.84 l -4.55,-3.42 a 0.77,0.77 0 0 1 0.45,-1.38 l 5.69,-0.1 a 0.77,0.77 0 0 0 0.71,-0.52 l 1.85,-5.38 a 0.77,0.77 0 0 1 1.46,0 l 1.85,5.38 a 0.77,0.77 0 0 0 0.71,0.52 z"
     id="path75" />
  <path
     fill="#f5f5f5"
     d="m 122.46,57.95678 5.71,0.11 a 0.75,0.75 0 0 1 0.44,1.35 l -4.55,3.45 a 0.75,0.75 0 0 0 -0.27,0.82 l 1.65,5.47 a 0.75,0.75 0 0 1 -1.14,0.83 l -4.69,-3.26 a 0.75,0.75 0 0 0 -0.86,0 l -4.69,3.26 a 0.75,0.75 0 0 1 -1.14,-0.83 l 1.65,-5.47 a 0.75,0.75 0 0 0 -0.27,-0.82 l -4.55,-3.45 a 0.75,0.75 0 0 1 0.44,-1.35 l 5.71,-0.11 a 0.75,0.75 0 0 0 0.69,-0.51 l 1.88,-5.39 a 0.75,0.75 0 0 1 1.42,0 l 1.88,5.39 a 0.75,0.75 0 0 0 0.69,0.51 z"
     id="path76" />
  <path
     fill="#f5f5f5"
     d="m 170.05,57.95678 5.68,0.1 a 0.77,0.77 0 0 1 0.45,1.38 l -4.54,3.42 a 0.77,0.77 0 0 0 -0.27,0.84 l 1.66,5.44 a 0.77,0.77 0 0 1 -1.17,0.85 l -4.66,-3.26 a 0.77,0.77 0 0 0 -0.88,0 l -4.66,3.26 a 0.77,0.77 0 0 1 -1.17,-0.85 l 1.66,-5.44 a 0.77,0.77 0 0 0 -0.27,-0.84 l -4.54,-3.42 a 0.77,0.77 0 0 1 0.45,-1.38 l 5.68,-0.1 a 0.77,0.77 0 0 0 0.71,-0.52 l 1.85,-5.37 a 0.77,0.77 0 0 1 1.46,0 l 1.85,5.37 a 0.77,0.77 0 0 0 0.71,0.52 z"
     id="path77" />
  <path
     fill="#f5f5f5"
     d="m 217.63,57.95678 5.69,0.1 a 0.77,0.77 0 0 1 0.45,1.38 l -4.55,3.42 a 0.77,0.77 0 0 0 -0.27,0.84 l 1.67,5.44 a 0.77,0.77 0 0 1 -1.18,0.86 l -4.66,-3.27 a 0.77,0.77 0 0 0 -0.88,0 l -4.66,3.27 a 0.77,0.77 0 0 1 -1.18,-0.86 l 1.67,-5.44 a 0.77,0.77 0 0 0 -0.27,-0.84 l -4.55,-3.42 a 0.77,0.77 0 0 1 0.45,-1.38 l 5.69,-0.1 a 0.77,0.77 0 0 0 0.71,-0.52 l 1.85,-5.38 a 0.77,0.77 0 0 1 1.46,0 l 1.85,5.38 a 0.77,0.77 0 0 0 0.71,0.52 z"
     id="path78" />
  <path
     fill="#ff4b55"
     d="M 238.36,52.73678 H 512 v 25.85 H 238.39 Z"
     id="path79" />
  <path
     fill="#f5f5f5"
     d="m 51.06,72.98678 5.73,0.12 a 0.74,0.74 0 0 1 0.43,1.33 l -4.56,3.47 a 0.74,0.74 0 0 0 -0.26,0.8 l 1.65,5.49 a 0.74,0.74 0 0 1 -1.13,0.82 l -4.71,-3.27 a 0.74,0.74 0 0 0 -0.84,0 l -4.71,3.27 a 0.74,0.74 0 0 1 -1.13,-0.82 l 1.65,-5.49 a 0.74,0.74 0 0 0 -0.26,-0.8 l -4.56,-3.47 a 0.74,0.74 0 0 1 0.43,-1.33 l 5.73,-0.12 a 0.74,0.74 0 0 0 0.68,-0.5 l 1.89,-5.41 a 0.74,0.74 0 0 1 1.4,0 l 1.89,5.41 a 0.74,0.74 0 0 0 0.68,0.5 z"
     id="path80" />
  <path
     fill="#f5f5f5"
     d="m 98.68,73.01678 5.7,0.08 a 0.77,0.77 0 0 1 0.45,1.39 l -4.56,3.42 a 0.77,0.77 0 0 0 -0.28,0.84 l 1.68,5.45 a 0.77,0.77 0 0 1 -1.18,0.85 l -4.66,-3.28 a 0.77,0.77 0 0 0 -0.88,0 l -4.66,3.28 a 0.77,0.77 0 0 1 -1.18,-0.85 l 1.68,-5.45 a 0.77,0.77 0 0 0 -0.28,-0.84 l -4.56,-3.42 a 0.77,0.77 0 0 1 0.45,-1.39 l 5.7,-0.08 a 0.77,0.77 0 0 0 0.72,-0.52 l 1.84,-5.4 a 0.77,0.77 0 0 1 1.46,0 l 1.84,5.4 a 0.77,0.77 0 0 0 0.72,0.52 z"
     id="path81" />
  <path
     fill="#f5f5f5"
     d="m 146.25,72.99678 5.71,0.12 a 0.75,0.75 0 0 1 0.43,1.35 l -4.54,3.44 a 0.75,0.75 0 0 0 -0.27,0.82 l 1.66,5.46 a 0.75,0.75 0 0 1 -1.15,0.83 l -4.68,-3.26 a 0.75,0.75 0 0 0 -0.86,0 l -4.68,3.26 a 0.75,0.75 0 0 1 -1.15,-0.83 l 1.66,-5.46 a 0.75,0.75 0 0 0 -0.27,-0.82 l -4.54,-3.44 a 0.75,0.75 0 0 1 0.43,-1.35 l 5.71,-0.12 a 0.75,0.75 0 0 0 0.69,-0.5 l 1.87,-5.39 a 0.75,0.75 0 0 1 1.42,0 l 1.87,5.39 a 0.75,0.75 0 0 0 0.69,0.5 z"
     id="path82" />
  <path
     fill="#f5f5f5"
     d="m 193.82,73.02678 5.72,0.08 a 0.76,0.76 0 0 1 0.44,1.37 l -4.57,3.43 a 0.76,0.76 0 0 0 -0.27,0.83 l 1.68,5.46 a 0.76,0.76 0 0 1 -1.16,0.85 l -4.67,-3.29 a 0.76,0.76 0 0 0 -0.88,0 l -4.67,3.29 a 0.76,0.76 0 0 1 -1.16,-0.85 l 1.68,-5.46 a 0.76,0.76 0 0 0 -0.27,-0.83 l -4.57,-3.43 a 0.76,0.76 0 0 1 0.44,-1.37 l 5.72,-0.08 a 0.76,0.76 0 0 0 0.7,-0.52 l 1.85,-5.4 a 0.76,0.76 0 0 1 1.44,0 l 1.85,5.4 a 0.76,0.76 0 0 0 0.7,0.52 z"
     id="path83" />
  <path
     fill="#f5f5f5"
     d="M 238.39,78.58678 H 512 v 25.8 H 238.42 Z"
     id="path84" />
  <path
     fill="#f5f5f5"
     d="m 27.27,88.60678 5.71,0.12 a 0.75,0.75 0 0 1 0.44,1.34 l -4.55,3.45 a 0.75,0.75 0 0 0 -0.27,0.82 l 1.66,5.46 a 0.75,0.75 0 0 1 -1.15,0.83 l -4.68,-3.26 a 0.75,0.75 0 0 0 -0.86,0 l -4.68,3.26 a 0.75,0.75 0 0 1 -1.15,-0.83 l 1.66,-5.46 a 0.75,0.75 0 0 0 -0.27,-0.82 l -4.55,-3.45 a 0.75,0.75 0 0 1 0.44,-1.34 l 5.71,-0.12 a 0.75,0.75 0 0 0 0.69,-0.5 l 1.87,-5.4 a 0.75,0.75 0 0 1 1.42,0 l 1.87,5.4 a 0.75,0.75 0 0 0 0.69,0.5 z"
     id="path85" />
  <path
     fill="#f5f5f5"
     d="m 74.85,88.60678 5.71,0.12 a 0.75,0.75 0 0 1 0.43,1.35 l -4.54,3.44 a 0.75,0.75 0 0 0 -0.27,0.82 l 1.66,5.46 a 0.75,0.75 0 0 1 -1.15,0.83 l -4.68,-3.26 a 0.75,0.75 0 0 0 -0.86,0 l -4.68,3.26 a 0.75,0.75 0 0 1 -1.15,-0.83 l 1.66,-5.46 a 0.75,0.75 0 0 0 -0.27,-0.82 l -4.54,-3.44 a 0.75,0.75 0 0 1 0.43,-1.35 l 5.71,-0.12 a 0.75,0.75 0 0 0 0.69,-0.5 l 1.87,-5.39 a 0.75,0.75 0 0 1 1.42,0 l 1.87,5.39 a 0.75,0.75 0 0 0 0.69,0.5 z"
     id="path86" />
  <path
     fill="#f5f5f5"
     d="m 122.45,88.62678 5.72,0.1 a 0.75,0.75 0 0 1 0.44,1.35 l -4.57,3.45 a 0.75,0.75 0 0 0 -0.27,0.81 l 1.68,5.48 a 0.75,0.75 0 0 1 -1.15,0.83 l -4.69,-3.28 a 0.75,0.75 0 0 0 -0.86,0 l -4.69,3.28 a 0.75,0.75 0 0 1 -1.15,-0.83 l 1.68,-5.48 a 0.75,0.75 0 0 0 -0.27,-0.81 l -4.57,-3.45 a 0.75,0.75 0 0 1 0.44,-1.35 l 5.72,-0.1 a 0.75,0.75 0 0 0 0.7,-0.5 l 1.86,-5.41 a 0.75,0.75 0 0 1 1.42,0 l 1.86,5.41 a 0.75,0.75 0 0 0 0.7,0.5 z"
     id="path87" />
  <path
     fill="#f5f5f5"
     d="m 170.03,88.62678 5.73,0.1 a 0.75,0.75 0 0 1 0.44,1.35 l -4.58,3.45 a 0.75,0.75 0 0 0 -0.27,0.82 l 1.68,5.47 a 0.75,0.75 0 0 1 -1.15,0.84 l -4.69,-3.29 a 0.75,0.75 0 0 0 -0.86,0 l -4.69,3.29 a 0.75,0.75 0 0 1 -1.15,-0.84 l 1.68,-5.47 a 0.75,0.75 0 0 0 -0.27,-0.82 l -4.58,-3.45 a 0.75,0.75 0 0 1 0.44,-1.35 l 5.73,-0.1 a 0.75,0.75 0 0 0 0.7,-0.5 l 1.86,-5.42 a 0.75,0.75 0 0 1 1.42,0 l 1.86,5.42 a 0.75,0.75 0 0 0 0.7,0.5 z"
     id="path88" />
  <path
     fill="#f5f5f5"
     d="m 217.63,88.62678 5.69,0.1 a 0.76,0.76 0 0 1 0.44,1.37 l -4.54,3.42 a 0.76,0.76 0 0 0 -0.27,0.83 l 1.66,5.45 a 0.76,0.76 0 0 1 -1.16,0.84 l -4.66,-3.26 a 0.76,0.76 0 0 0 -0.88,0 l -4.66,3.26 a 0.76,0.76 0 0 1 -1.16,-0.84 l 1.66,-5.45 a 0.76,0.76 0 0 0 -0.27,-0.83 l -4.54,-3.42 a 0.76,0.76 0 0 1 0.44,-1.37 l 5.69,-0.1 a 0.76,0.76 0 0 0 0.71,-0.51 l 1.85,-5.38 a 0.76,0.76 0 0 1 1.44,0 l 1.85,5.38 a 0.76,0.76 0 0 0 0.71,0.51 z"
     id="path89" />
  <path
     fill="#f5f5f5"
     d="m 51.06,103.63678 5.71,0.12 a 0.75,0.75 0 0 1 0.44,1.34 l -4.55,3.45 a 0.75,0.75 0 0 0 -0.27,0.82 l 1.66,5.46 a 0.75,0.75 0 0 1 -1.15,0.83 l -4.68,-3.26 a 0.75,0.75 0 0 0 -0.86,0 l -4.68,3.26 a 0.75,0.75 0 0 1 -1.15,-0.83 l 1.66,-5.46 a 0.75,0.75 0 0 0 -0.27,-0.82 l -4.55,-3.45 a 0.75,0.75 0 0 1 0.44,-1.34 l 5.71,-0.12 a 0.75,0.75 0 0 0 0.69,-0.5 l 1.87,-5.4 a 0.75,0.75 0 0 1 1.42,0 l 1.87,5.4 a 0.75,0.75 0 0 0 0.69,0.5 z"
     id="path90" />
  <path
     fill="#f5f5f5"
     d="m 98.67,103.65678 5.7,0.08 a 0.77,0.77 0 0 1 0.45,1.39 l -4.56,3.42 a 0.77,0.77 0 0 0 -0.28,0.84 l 1.68,5.45 a 0.77,0.77 0 0 1 -1.18,0.85 l -4.66,-3.28 a 0.77,0.77 0 0 0 -0.88,0 l -4.66,3.28 a 0.77,0.77 0 0 1 -1.18,-0.85 l 1.68,-5.45 a 0.77,0.77 0 0 0 -0.28,-0.84 l -4.56,-3.42 a 0.77,0.77 0 0 1 0.45,-1.39 l 5.7,-0.08 a 0.77,0.77 0 0 0 0.72,-0.52 l 1.84,-5.4 a 0.77,0.77 0 0 1 1.46,0 l 1.84,5.4 a 0.77,0.77 0 0 0 0.72,0.52 z"
     id="path91" />
  <path
     fill="#f5f5f5"
     d="m 146.25,103.63678 5.7,0.12 a 0.75,0.75 0 0 1 0.44,1.34 l -4.54,3.45 a 0.75,0.75 0 0 0 -0.27,0.82 l 1.65,5.46 a 0.75,0.75 0 0 1 -1.15,0.83 l -4.68,-3.25 a 0.75,0.75 0 0 0 -0.86,0 l -4.68,3.25 a 0.75,0.75 0 0 1 -1.15,-0.83 l 1.65,-5.46 a 0.75,0.75 0 0 0 -0.27,-0.82 l -4.54,-3.45 a 0.75,0.75 0 0 1 0.44,-1.34 l 5.7,-0.12 a 0.75,0.75 0 0 0 0.69,-0.51 l 1.88,-5.39 a 0.75,0.75 0 0 1 1.42,0 l 1.88,5.39 a 0.75,0.75 0 0 0 0.69,0.51 z"
     id="path92" />
  <path
     fill="#f5f5f5"
     d="m 193.83,103.66678 5.72,0.07 a 0.77,0.77 0 0 1 0.45,1.39 l -4.58,3.41 a 0.77,0.77 0 0 0 -0.28,0.85 l 1.7,5.46 a 0.77,0.77 0 0 1 -1.18,0.86 l -4.67,-3.31 a 0.77,0.77 0 0 0 -0.88,0 l -4.67,3.31 a 0.77,0.77 0 0 1 -1.18,-0.86 l 1.7,-5.46 a 0.77,0.77 0 0 0 -0.28,-0.85 l -4.58,-3.41 a 0.77,0.77 0 0 1 0.45,-1.39 l 5.72,-0.07 a 0.77,0.77 0 0 0 0.72,-0.53 l 1.83,-5.41 a 0.77,0.77 0 0 1 1.46,0 l 1.83,5.41 a 0.77,0.77 0 0 0 0.72,0.53 z"
     id="path93" />
  <path
     fill="#ff4b55"
     d="M 238.42,104.38678 H 512 v 25.77 H 238.41 Z"
     id="path94" />
  <path
     fill="#f5f5f5"
     d="m 27.29,119.31678 5.72,0.06 a 0.77,0.77 0 0 1 0.45,1.39 l -4.6,3.41 a 0.77,0.77 0 0 0 -0.27,0.85 l 1.71,5.46 a 0.77,0.77 0 0 1 -1.18,0.85 l -4.66,-3.31 a 0.77,0.77 0 0 0 -0.9,0 l -4.66,3.31 a 0.77,0.77 0 0 1 -1.18,-0.85 l 1.71,-5.46 a 0.77,0.77 0 0 0 -0.27,-0.85 l -4.6,-3.41 a 0.77,0.77 0 0 1 0.45,-1.39 l 5.72,-0.06 a 0.77,0.77 0 0 0 0.73,-0.52 l 1.82,-5.43 a 0.77,0.77 0 0 1 1.46,0 l 1.82,5.43 a 0.77,0.77 0 0 0 0.73,0.52 z"
     id="path95" />
  <path
     fill="#f5f5f5"
     d="m 74.86,119.27678 5.69,0.12 a 0.75,0.75 0 0 1 0.44,1.35 l -4.54,3.44 a 0.75,0.75 0 0 0 -0.26,0.82 l 1.64,5.45 a 0.75,0.75 0 0 1 -1.14,0.83 l -4.68,-3.24 a 0.75,0.75 0 0 0 -0.86,0 l -4.68,3.24 a 0.75,0.75 0 0 1 -1.14,-0.83 l 1.64,-5.45 a 0.75,0.75 0 0 0 -0.26,-0.82 l -4.54,-3.44 a 0.75,0.75 0 0 1 0.44,-1.35 l 5.69,-0.12 a 0.75,0.75 0 0 0 0.69,-0.51 l 1.88,-5.37 a 0.75,0.75 0 0 1 1.42,0 l 1.88,5.37 a 0.75,0.75 0 0 0 0.69,0.51 z"
     id="path96" />
  <path
     fill="#f5f5f5"
     d="m 122.44,119.27678 5.7,0.13 a 0.74,0.74 0 0 1 0.43,1.33 l -4.53,3.46 a 0.74,0.74 0 0 0 -0.26,0.8 l 1.63,5.46 a 0.74,0.74 0 0 1 -1.13,0.83 l -4.69,-3.25 a 0.74,0.74 0 0 0 -0.84,0 l -4.69,3.25 a 0.74,0.74 0 0 1 -1.13,-0.83 l 1.63,-5.46 a 0.74,0.74 0 0 0 -0.26,-0.8 l -4.53,-3.46 a 0.74,0.74 0 0 1 0.43,-1.33 l 5.7,-0.13 a 0.74,0.74 0 0 0 0.68,-0.5 l 1.89,-5.38 a 0.74,0.74 0 0 1 1.4,0 l 1.89,5.38 a 0.74,0.74 0 0 0 0.68,0.5 z"
     id="path97" />
  <path
     fill="#f5f5f5"
     d="m 170.05,119.27678 5.69,0.12 a 0.75,0.75 0 0 1 0.44,1.35 l -4.54,3.44 a 0.75,0.75 0 0 0 -0.26,0.82 l 1.64,5.45 a 0.75,0.75 0 0 1 -1.14,0.83 l -4.68,-3.24 a 0.75,0.75 0 0 0 -0.86,0 l -4.68,3.24 a 0.75,0.75 0 0 1 -1.14,-0.83 l 1.64,-5.45 a 0.75,0.75 0 0 0 -0.26,-0.82 l -4.54,-3.44 a 0.75,0.75 0 0 1 0.44,-1.35 l 5.69,-0.12 a 0.75,0.75 0 0 0 0.69,-0.51 l 1.88,-5.37 a 0.75,0.75 0 0 1 1.42,0 l 1.88,5.37 a 0.75,0.75 0 0 0 0.69,0.51 z"
     id="path98" />
  <path
     fill="#f5f5f5"
     d="m 217.62,119.27678 5.68,0.13 a 0.75,0.75 0 0 1 0.43,1.34 l -4.52,3.44 a 0.75,0.75 0 0 0 -0.26,0.82 l 1.63,5.44 a 0.75,0.75 0 0 1 -1.14,0.83 l -4.67,-3.23 a 0.75,0.75 0 0 0 -0.86,0 l -4.67,3.23 a 0.75,0.75 0 0 1 -1.14,-0.83 l 1.63,-5.44 a 0.75,0.75 0 0 0 -0.26,-0.82 l -4.52,-3.44 a 0.75,0.75 0 0 1 0.43,-1.34 l 5.68,-0.13 a 0.75,0.75 0 0 0 0.69,-0.5 l 1.88,-5.37 a 0.75,0.75 0 0 1 1.42,0 l 1.88,5.37 a 0.75,0.75 0 0 0 0.69,0.5 z"
     id="path99" />
  <path
     fill="#f5f5f5"
     d="m 51.07,134.30678 5.71,0.11 a 0.75,0.75 0 0 1 0.44,1.35 l -4.55,3.45 a 0.75,0.75 0 0 0 -0.27,0.82 l 1.65,5.47 a 0.75,0.75 0 0 1 -1.14,0.83 l -4.69,-3.26 a 0.75,0.75 0 0 0 -0.86,0 l -4.69,3.26 a 0.75,0.75 0 0 1 -1.14,-0.83 l 1.65,-5.47 a 0.75,0.75 0 0 0 -0.27,-0.82 l -4.55,-3.45 a 0.75,0.75 0 0 1 0.44,-1.35 l 5.71,-0.11 a 0.75,0.75 0 0 0 0.69,-0.51 l 1.88,-5.39 a 0.75,0.75 0 0 1 1.42,0 l 1.88,5.39 a 0.75,0.75 0 0 0 0.69,0.51 z"
     id="path100" />
  <path
     fill="#f5f5f5"
     d="m 98.66,134.31678 5.69,0.1 a 0.76,0.76 0 0 1 0.44,1.37 l -4.54,3.42 a 0.76,0.76 0 0 0 -0.27,0.83 l 1.66,5.45 a 0.76,0.76 0 0 1 -1.16,0.84 l -4.66,-3.26 a 0.76,0.76 0 0 0 -0.88,0 l -4.66,3.26 a 0.76,0.76 0 0 1 -1.16,-0.84 l 1.66,-5.45 a 0.76,0.76 0 0 0 -0.27,-0.83 l -4.54,-3.42 a 0.76,0.76 0 0 1 0.44,-1.37 l 5.69,-0.1 a 0.76,0.76 0 0 0 0.71,-0.51 l 1.85,-5.38 a 0.76,0.76 0 0 1 1.44,0 l 1.85,5.38 a 0.76,0.76 0 0 0 0.71,0.51 z"
     id="path101" />
  <path
     fill="#f5f5f5"
     d="m 146.24,134.30678 5.72,0.11 a 0.75,0.75 0 0 1 0.44,1.35 l -4.56,3.45 a 0.75,0.75 0 0 0 -0.27,0.82 l 1.67,5.47 a 0.75,0.75 0 0 1 -1.15,0.83 l -4.69,-3.27 a 0.75,0.75 0 0 0 -0.86,0 l -4.69,3.27 a 0.75,0.75 0 0 1 -1.15,-0.83 l 1.67,-5.47 a 0.75,0.75 0 0 0 -0.27,-0.82 l -4.56,-3.45 a 0.75,0.75 0 0 1 0.44,-1.35 l 5.72,-0.11 a 0.75,0.75 0 0 0 0.69,-0.5 l 1.87,-5.4 a 0.75,0.75 0 0 1 1.42,0 l 1.87,5.4 a 0.75,0.75 0 0 0 0.69,0.5 z"
     id="path102" />
  <path
     fill="#f5f5f5"
     d="m 193.82,134.29678 5.71,0.12 a 0.75,0.75 0 0 1 0.43,1.35 l -4.54,3.44 a 0.75,0.75 0 0 0 -0.27,0.82 l 1.66,5.46 a 0.75,0.75 0 0 1 -1.15,0.83 l -4.68,-3.26 a 0.75,0.75 0 0 0 -0.86,0 l -4.68,3.26 a 0.75,0.75 0 0 1 -1.15,-0.83 l 1.66,-5.46 a 0.75,0.75 0 0 0 -0.27,-0.82 l -4.54,-3.44 a 0.75,0.75 0 0 1 0.43,-1.35 l 5.71,-0.12 a 0.75,0.75 0 0 0 0.69,-0.5 l 1.87,-5.39 a 0.75,0.75 0 0 1 1.42,0 l 1.87,5.39 a 0.75,0.75 0 0 0 0.69,0.5 z"
     id="path103" />
  <path
     fill="#f5f5f5"
     d="M 238.41,130.15678 H 512 v 25.76 l -273.59,0.01 z"
     id="path104" />
  <path
     fill="#f5f5f5"
     d="m 27.28,149.93678 5.73,0.1 a 0.76,0.76 0 0 1 0.44,1.36 l -4.57,3.45 a 0.76,0.76 0 0 0 -0.27,0.83 l 1.68,5.47 a 0.76,0.76 0 0 1 -1.17,0.84 l -4.68,-3.28 a 0.76,0.76 0 0 0 -0.88,0 l -4.68,3.28 a 0.76,0.76 0 0 1 -1.17,-0.84 l 1.68,-5.47 a 0.76,0.76 0 0 0 -0.27,-0.83 l -4.57,-3.45 a 0.76,0.76 0 0 1 0.44,-1.36 l 5.73,-0.1 a 0.76,0.76 0 0 0 0.7,-0.51 l 1.86,-5.42 a 0.76,0.76 0 0 1 1.44,0 l 1.86,5.42 a 0.76,0.76 0 0 0 0.7,0.51 z"
     id="path105" />
  <path
     fill="#f5f5f5"
     d="m 74.87,149.92678 5.68,0.09 a 0.77,0.77 0 0 1 0.45,1.38 l -4.55,3.42 a 0.77,0.77 0 0 0 -0.27,0.84 l 1.67,5.44 a 0.77,0.77 0 0 1 -1.17,0.85 l -4.66,-3.27 a 0.77,0.77 0 0 0 -0.88,0 l -4.66,3.27 a 0.77,0.77 0 0 1 -1.17,-0.85 l 1.67,-5.44 a 0.77,0.77 0 0 0 -0.27,-0.84 l -4.55,-3.42 a 0.77,0.77 0 0 1 0.45,-1.38 l 5.68,-0.09 a 0.77,0.77 0 0 0 0.72,-0.52 l 1.84,-5.38 a 0.77,0.77 0 0 1 1.46,0 l 1.84,5.38 a 0.77,0.77 0 0 0 0.72,0.52 z"
     id="path106" />
  <path
     fill="#f5f5f5"
     d="m 122.46,149.92678 5.72,0.1 a 0.76,0.76 0 0 1 0.45,1.37 l -4.57,3.44 a 0.76,0.76 0 0 0 -0.27,0.83 l 1.67,5.46 a 0.76,0.76 0 0 1 -1.16,0.85 l -4.68,-3.28 a 0.76,0.76 0 0 0 -0.88,0 l -4.68,3.28 a 0.76,0.76 0 0 1 -1.16,-0.85 l 1.67,-5.46 a 0.76,0.76 0 0 0 -0.27,-0.83 l -4.57,-3.44 a 0.76,0.76 0 0 1 0.45,-1.37 l 5.72,-0.1 a 0.76,0.76 0 0 0 0.7,-0.51 l 1.86,-5.41 a 0.76,0.76 0 0 1 1.44,0 l 1.86,5.41 a 0.76,0.76 0 0 0 0.7,0.51 z"
     id="path107" />
  <path
     fill="#f5f5f5"
     d="m 170.05,149.94678 5.7,0.07 a 0.77,0.77 0 0 1 0.46,1.39 l -4.58,3.41 a 0.77,0.77 0 0 0 -0.28,0.85 l 1.7,5.45 a 0.77,0.77 0 0 1 -1.18,0.85 l -4.65,-3.29 a 0.77,0.77 0 0 0 -0.9,0 l -4.65,3.29 a 0.77,0.77 0 0 1 -1.18,-0.85 l 1.7,-5.45 a 0.77,0.77 0 0 0 -0.28,-0.85 l -4.58,-3.41 a 0.77,0.77 0 0 1 0.46,-1.39 l 5.7,-0.07 a 0.77,0.77 0 0 0 0.72,-0.52 l 1.83,-5.4 a 0.77,0.77 0 0 1 1.46,0 l 1.83,5.4 a 0.77,0.77 0 0 0 0.72,0.52 z"
     id="path108" />
  <path
     fill="#f5f5f5"
     d="m 217.63,149.93678 5.69,0.09 a 0.77,0.77 0 0 1 0.45,1.38 l -4.56,3.42 a 0.77,0.77 0 0 0 -0.27,0.84 l 1.68,5.44 a 0.77,0.77 0 0 1 -1.18,0.86 l -4.66,-3.28 a 0.77,0.77 0 0 0 -0.88,0 l -4.66,3.28 a 0.77,0.77 0 0 1 -1.18,-0.86 l 1.68,-5.44 a 0.77,0.77 0 0 0 -0.27,-0.84 l -4.56,-3.42 a 0.77,0.77 0 0 1 0.45,-1.38 l 5.69,-0.09 a 0.77,0.77 0 0 0 0.72,-0.52 l 1.84,-5.39 a 0.77,0.77 0 0 1 1.46,0 l 1.84,5.39 a 0.77,0.77 0 0 0 0.72,0.52 z"
     id="path109" />
  <path
     fill="#ff4b55"
     d="m 512,155.91678 v 25.92 l -279.81,-0.01 q 3.42,-1.96 4.95,-4.63 1.1,-1.91 1.13,-6.33 0.05,-7.33 0.14,-14.94 z"
     id="path110" />
  <path
     fill="#f5f5f5"
     d="m 0,175.45678 q 1.69,3.91 4.92,5.48 1.96,0.94 6.81,0.94 108.52,0 217.02,-0.22 1.91,0 3.44,0.17 l 279.81,0.01 v 25.79 l -512,-0.01 z"
     id="path111" />
  <path
     fill="#ff4b55"
     d="m 0,207.61678 512,0.01 v 25.76 H 0 Z"
     id="path112" />
  <path
     fill="#f5f5f5"
     d="m 0,233.38678 h 512 v 25.79 H 0 Z"
     id="path113" />
  <path
     fill="#ff4b55"
     d="m 0,259.17678 h 512 v 25.84 H 0 Z"
     id="path114" />
  <path
     fill="#f5f5f5"
     d="m 0,285.01678 h 512 v 15.61 l -2.09,10.22 H 2.1 l -2.1,-10.09 z"
     id="path115" />
  <path
     fill="#ff4b55"
     d="m 2.1,310.84678 h 507.81 q -0.69,2.42 -1.21,3.45 -8.6,16.97 -25.56,21.18 -5.37,1.34 -9.8,1.34 -213.97,-0.04 -431.14,0.04 -8.15,0.01 -13.82,-1.49 c -11.39,-2.99 -22.73,-12.3 -26.28,-24.52 z"
     id="path116" />
</svg>
